<svg width="215" height="215" viewBox="0 0 215 215" fill="none" xmlns="http://www.w3.org/2000/svg">
<rect fill="url(#paint0_linear)"/>
<path d="M212.028 136.246C210.508 134.609 208.578 133.489 206.453 132.985C207.679 129.219 206.887 124.914 204.007 121.812C201.958 119.606 199.173 118.329 196.165 118.218C196.074 118.215 195.985 118.216 195.894 118.215C196.032 115.294 195.046 112.322 192.905 110.016C190.882 107.837 188.14 106.567 185.173 106.429C185.441 103.365 184.464 100.204 182.212 97.7777C180.164 95.5714 177.379 94.2949 174.371 94.1836C171.366 94.0719 168.491 95.1393 166.285 97.1885L164.79 98.5772C162.619 97.0101 160.021 96.1198 157.261 96.0287C155.893 95.9872 154.546 96.1421 153.251 96.4785L147.143 89.1748C144.975 86.583 141.101 86.2374 138.509 88.4025L136.917 89.732L72.9784 13.5C71.8605 12.1675 69.8751 11.9933 68.5419 13.1107C67.2095 14.2281 67.0352 16.2147 68.1526 17.5467L68.2656 17.6811L1.6577 73.3072C0.533991 74.2457 -0.0681755 75.6231 0.00615057 77.0857C0.0808965 78.5482 0.819538 79.8571 2.03395 80.6772L27.3325 97.7517L40.7078 127.055C41.3113 128.377 42.4698 129.319 43.8871 129.64C44.2314 129.719 44.5778 129.757 44.9209 129.757C45.9896 129.757 47.0268 129.384 47.8704 128.678L114.552 72.8692L132.083 93.7704L129.874 95.6143C128.617 96.6649 127.844 98.1426 127.697 99.7744C127.551 101.407 128.05 102.999 129.101 104.255L135.306 111.673C134.469 112.945 133.789 114.318 133.296 115.757L120.917 146.206L61.3843 191.981C59.3368 193.556 58.5511 196.153 59.383 198.599C60.2144 201.044 62.4207 202.624 65.0032 202.624H130.446C132.037 202.624 133.587 201.97 134.698 200.83L152.468 182.585L171.174 181.241C171.289 181.233 171.403 181.219 171.517 181.198C175.686 180.432 179.551 178.5 182.678 175.623L190.536 168.489C190.596 168.442 190.659 168.399 190.717 168.35L195.77 164.112C197.874 163.748 199.831 162.786 201.433 161.298L211.445 151.997C215.947 147.815 216.208 140.749 212.028 136.246ZM45.5214 122.432L32.8658 94.7051C32.5122 93.9308 31.9525 93.2703 31.2491 92.7962L7.41188 76.7082L72.3128 22.5073L110.505 68.0435L45.5214 122.432ZM182.407 121.573C182.529 119.135 181.788 116.806 180.313 114.925L181.264 114.041C182.237 113.138 183.504 112.671 184.83 112.716C186.157 112.765 187.385 113.328 188.289 114.301C190.031 116.178 190.041 119.052 188.397 120.942C188.29 121.034 188.183 121.127 188.079 121.223L178.244 130.361C178.099 130.495 177.958 130.633 177.822 130.773C177.083 131.339 176.209 131.677 175.285 131.763C175.989 131.368 176.663 130.894 177.281 130.32L179.105 128.626C181.1 126.773 182.272 124.268 182.407 121.573ZM170.572 101.803C171.544 100.9 172.808 100.425 174.138 100.478C175.465 100.527 176.693 101.09 177.597 102.063C179.461 104.071 179.344 107.221 177.337 109.085L176.045 110.285L169.273 103.01L170.572 101.803ZM134.039 100.342L142.419 93.3442L147.551 99.4805C147.394 99.6161 147.238 99.7543 147.086 99.8975L139.578 106.964L134.039 100.342ZM178.43 170.974C176.204 173.021 173.48 174.402 170.542 174.972L150.822 176.389C150.053 176.445 149.33 176.781 148.792 177.333L130.293 196.326H66.0665L125.433 150.679C125.477 150.645 125.516 150.608 125.558 150.573C125.586 150.549 125.615 150.526 125.642 150.501C125.743 150.409 125.836 150.312 125.922 150.21C125.939 150.19 125.954 150.168 125.971 150.148C126.049 150.049 126.121 149.948 126.187 149.842C126.199 149.823 126.212 149.804 126.224 149.784C126.298 149.658 126.362 149.528 126.418 149.394C126.422 149.386 126.427 149.378 126.431 149.369L139.165 118.044C139.19 117.983 139.213 117.923 139.234 117.861C139.852 116.02 140.932 114.339 142.357 112.997L151.402 104.485C152.955 103.023 154.963 102.253 157.053 102.325C159.032 102.39 160.851 103.209 162.175 104.631L162.512 104.993L162.512 104.993L162.513 104.994L173.574 116.874C173.575 116.876 173.575 116.877 173.577 116.878C173.578 116.879 173.578 116.879 173.579 116.88C173.58 116.881 173.58 116.882 173.581 116.882C173.581 116.883 173.582 116.884 173.583 116.885L175.151 118.568C175.824 119.291 176.167 120.248 176.116 121.26C176.064 122.306 175.603 123.283 174.818 124.013L172.994 125.707C171.732 126.879 169.937 127.101 168.545 126.389C168.51 126.371 168.474 126.355 168.439 126.338C168.115 126.158 167.815 125.927 167.55 125.643L162.958 120.704C161.317 118.938 159.074 117.921 156.645 117.84C154.15 117.756 151.769 118.66 149.936 120.386C149.252 121.03 148.891 121.945 148.951 122.882C149.027 124.056 148.993 125.18 148.856 126.263C148.848 126.319 148.839 126.375 148.834 126.432C148.465 129.115 147.435 131.537 145.717 133.767C144.655 135.144 144.911 137.121 146.289 138.183C147.666 139.244 149.644 138.988 150.705 137.61C151.773 136.225 152.651 134.767 153.347 133.243L182.073 167.587C182.085 167.602 182.1 167.616 182.113 167.631L178.43 170.974ZM186.779 163.395L155.233 125.681C155.263 125.232 155.284 124.779 155.288 124.322C155.652 124.185 156.04 124.118 156.434 124.134C157.175 124.158 157.854 124.463 158.345 124.991L162.938 129.93C163.408 130.436 163.919 130.881 164.462 131.266C164.968 132.454 165.668 133.534 166.553 134.486C168.601 136.692 171.386 137.969 174.394 138.08C174.485 138.083 174.575 138.084 174.665 138.085C174.527 141.006 175.513 143.976 177.654 146.282C179.189 147.935 181.137 149.066 183.282 149.576C182.029 153.322 182.805 157.623 185.676 160.716C186.31 161.399 187.015 161.992 187.777 162.488L186.779 163.395ZM185.729 143.582C184.403 143.534 183.174 142.97 182.271 141.997C180.529 140.121 180.518 137.247 182.162 135.358C182.269 135.265 182.376 135.172 182.48 135.075L192.316 125.938C192.461 125.804 192.601 125.665 192.738 125.525C193.651 124.828 194.769 124.473 195.932 124.513C197.259 124.562 198.487 125.125 199.39 126.098C201.254 128.106 201.137 131.256 199.131 133.12L197.317 134.805C196.955 135.069 196.604 135.354 196.271 135.663L188.581 142.807C187.738 143.347 186.754 143.621 185.729 143.582ZM207.159 147.383L197.146 156.684C196.337 157.436 195.322 157.879 194.236 157.963C194.192 157.966 194.149 157.968 194.106 157.973C193.961 157.98 193.814 157.983 193.667 157.977C192.372 157.929 191.174 157.38 190.293 156.431C188.474 154.471 188.587 151.398 190.545 149.579L192.532 147.733C192.896 147.468 193.248 147.182 193.583 146.871L201.266 139.733C202.087 139.211 203.043 138.947 204.038 138.984C205.333 139.032 206.531 139.581 207.413 140.53C209.231 142.49 209.117 145.563 207.159 147.383Z" fill="url(#paint1_linear)"/>
<defs>
<linearGradient id="paint0_linear" x1="107.5" y1="0" x2="107.5" y2="215" gradientUnits="userSpaceOnUse">
<stop stop-color="white"/>
<stop offset="1" stop-color="white" stop-opacity="0"/>
</linearGradient>
<linearGradient id="paint1_linear" x1="107.5" y1="12.3745" x2="107.5" y2="202.624" gradientUnits="userSpaceOnUse">
<stop stop-color="#F85C71"/>
<stop offset="1" stop-color="#1D4E89"/>
</linearGradient>
</defs>
</svg>
