<svg xmlns="http://www.w3.org/2000/svg" xmlns:xlink="http://www.w3.org/1999/xlink" width="13.743" height="18.324" viewBox="0 0 13.743 18.324"><defs><style>.a{fill:url(#a);}</style><linearGradient id="a" x1="0.5" x2="0.5" y2="1" gradientUnits="objectBoundingBox"><stop offset="0" stop-color="#fd7a58"/><stop offset="0.732" stop-color="#f85c71"/><stop offset="1" stop-color="#fcb4ce"/></linearGradient></defs><path class="a" d="M12.6,1.145H9.493A2.843,2.843,0,0,1,9.735,2.29V2.82c0,.005,0,.009,0,.014a2.86,2.86,0,0,0-5.72,0c0-.005,0-.009,0-.014V2.5a3.226,3.226,0,0,1,.31-1.351H1.145A1.145,1.145,0,0,0,0,2.29V17.179a1.145,1.145,0,0,0,1.145,1.145H12.6a1.145,1.145,0,0,0,1.145-1.145V2.29A1.145,1.145,0,0,0,12.6,1.145Zm-5.726.573A.573.573,0,1,1,6.3,2.29.573.573,0,0,1,6.871,1.718Zm.035,13.17H3.471V12.6H6.907Zm3.436-3.436H3.471V9.162h6.871Zm0-3.436H3.471V5.726h6.871Z"/></svg>