<svg width="38" height="38" viewBox="0 0 38 38" fill="none" xmlns="http://www.w3.org/2000/svg">
<path d="M13.0859 20.1697H22.3336C22.4714 20.1697 22.6035 20.1149 22.701 20.0175C22.7984 19.9201 22.8531 19.7879 22.8531 19.6501V15.7403C22.8513 15.136 22.6837 14.5438 22.3687 14.0281C22.0537 13.5124 21.6033 13.093 21.0665 12.8155C21.5815 12.1811 21.9061 11.4137 22.0029 10.6024C22.0996 9.79101 21.9645 8.96885 21.6132 8.23114C21.2618 7.49343 20.7086 6.87038 20.0177 6.43416C19.3268 5.99794 18.5264 5.76642 17.7093 5.76642C16.8922 5.76642 16.0918 5.99794 15.4009 6.43416C14.71 6.87038 14.1568 7.49343 13.8055 8.23114C13.4541 8.96885 13.319 9.79101 13.4158 10.6024C13.5125 11.4137 13.8372 12.1811 14.3521 12.8155C13.8154 13.0931 13.3652 13.5125 13.0503 14.0282C12.7355 14.5439 12.5681 15.1361 12.5664 15.7403V19.6501C12.5664 19.7879 12.6211 19.9201 12.7186 20.0175C12.816 20.1149 12.9481 20.1697 13.0859 20.1697ZM17.7095 6.81028C18.3591 6.81028 18.9942 7.00291 19.5344 7.36383C20.0746 7.72474 20.4956 8.23772 20.7443 8.83791C20.9929 9.4381 21.058 10.0985 20.9313 10.7357C20.8047 11.3729 20.4919 11.9582 20.0326 12.4177C19.5733 12.8771 18.988 13.19 18.3509 13.3169C17.7137 13.4437 17.0533 13.3788 16.453 13.1303C15.8527 12.8818 15.3396 12.4609 14.9786 11.9209C14.6175 11.3808 14.4247 10.7457 14.4245 10.0961C14.4255 9.22514 14.7719 8.39012 15.3877 7.77424C16.0035 7.15835 16.8385 6.81189 17.7095 6.81087V6.81028ZM13.6055 15.7403C13.6065 15.2621 13.7595 14.7965 14.0423 14.4109C14.3251 14.0253 14.7231 13.7395 15.1789 13.5948C15.9137 14.1311 16.7999 14.4201 17.7096 14.4201C18.6193 14.4201 19.5055 14.1311 20.2403 13.5948C20.6961 13.7395 21.0941 14.0253 21.3769 14.4109C21.6598 14.7965 21.8127 15.2621 21.8138 15.7403V19.1306H13.6055V15.7403Z" fill="#1D4E89"/>
<path d="M36.0938 9.48278C36.2315 9.48278 36.3637 9.42805 36.4611 9.33061C36.5585 9.23318 36.6133 9.10104 36.6133 8.96325V5.40075C36.6133 5.26296 36.5585 5.13082 36.4611 5.03339C36.3637 4.93595 36.2315 4.88122 36.0938 4.88122H33.9859V1.92969C33.9859 1.7919 33.9312 1.65975 33.8338 1.56232C33.7363 1.46489 33.6042 1.41016 33.4664 1.41016H1.95313C1.81534 1.41016 1.68319 1.46489 1.58576 1.56232C1.48833 1.65975 1.43359 1.7919 1.43359 1.92969V36.0703C1.43359 36.2081 1.48833 36.3402 1.58576 36.4377C1.68319 36.5351 1.81534 36.5898 1.95313 36.5898H33.4673C33.6051 36.5898 33.7372 36.5351 33.8347 36.4377C33.9321 36.3402 33.9868 36.2081 33.9868 36.0703V20.1703H36.0946C36.2324 20.1703 36.3646 20.1155 36.462 20.0181C36.5594 19.9207 36.6142 19.7885 36.6142 19.6508V16.0883C36.6142 15.9505 36.5594 15.8183 36.462 15.7209C36.3646 15.6235 36.2324 15.5687 36.0946 15.5687H33.9868V14.8265H36.0946C36.2324 14.8265 36.3646 14.7718 36.462 14.6744C36.5594 14.5769 36.6142 14.4448 36.6142 14.307V10.7445C36.6142 10.6067 36.5594 10.4746 36.462 10.3771C36.3646 10.2797 36.2324 10.225 36.0946 10.225H33.9868V9.48278H36.0938ZM35.5742 5.92028V8.44372H33.9868V5.92028H35.5742ZM32.9478 35.5508H2.47266V2.44922H32.9478V35.5508ZM35.5742 16.6078V19.1312H33.9868V16.6078H35.5742ZM35.5742 11.264V13.7875H33.9868V11.264H35.5742Z" fill="#1D4E89"/>
<path d="M26.2441 24.2199H9.17383C9.03604 24.2199 8.9039 24.2746 8.80646 24.372C8.70903 24.4695 8.6543 24.6016 8.6543 24.7394C8.6543 24.8772 8.70903 25.0093 8.80646 25.1068C8.9039 25.2042 9.03604 25.2589 9.17383 25.2589H26.2441C26.3819 25.2589 26.5141 25.2042 26.6115 25.1068C26.7089 25.0093 26.7637 24.8772 26.7637 24.7394C26.7637 24.6016 26.7089 24.4695 26.6115 24.372C26.5141 24.2746 26.3819 24.2199 26.2441 24.2199Z" fill="#1D4E89"/>
<path d="M26.2441 27.3867H9.17383C9.03604 27.3867 8.9039 27.4415 8.80646 27.5389C8.70903 27.6363 8.6543 27.7685 8.6543 27.9062C8.6543 28.044 8.70903 28.1762 8.80646 28.2736C8.9039 28.371 9.03604 28.4258 9.17383 28.4258H26.2441C26.3819 28.4258 26.5141 28.371 26.6115 28.2736C26.7089 28.1762 26.7637 28.044 26.7637 27.9062C26.7637 27.7685 26.7089 27.6363 26.6115 27.5389C26.5141 27.4415 26.3819 27.3867 26.2441 27.3867Z" fill="#1D4E89"/>
<path d="M26.2441 30.5536H9.17383C9.03604 30.5536 8.9039 30.6083 8.80646 30.7057C8.70903 30.8032 8.6543 30.9353 8.6543 31.0731C8.6543 31.2109 8.70903 31.343 8.80646 31.4405C8.9039 31.5379 9.03604 31.5926 9.17383 31.5926H26.2441C26.3819 31.5926 26.5141 31.5379 26.6115 31.4405C26.7089 31.343 26.7637 31.2109 26.7637 31.0731C26.7637 30.9353 26.7089 30.8032 26.6115 30.7057C26.5141 30.6083 26.3819 30.5536 26.2441 30.5536Z" fill="#1D4E89"/>
<path d="M3.71094 3.19141C3.57315 3.19141 3.441 3.24614 3.34357 3.34357C3.24614 3.441 3.19141 3.57315 3.19141 3.71094V9.80845C3.19141 9.94624 3.24614 10.0784 3.34357 10.1758C3.441 10.2732 3.57315 10.328 3.71094 10.328C3.84873 10.328 3.98087 10.2732 4.0783 10.1758C4.17573 10.0784 4.23047 9.94624 4.23047 9.80845V3.71094C4.23047 3.57315 4.17573 3.441 4.0783 3.34357C3.98087 3.24614 3.84873 3.19141 3.71094 3.19141Z" fill="#1D4E89"/>
</svg>
