<svg xmlns="http://www.w3.org/2000/svg" xmlns:xlink="http://www.w3.org/1999/xlink" width="26.415" height="26.415" viewBox="0 0 26.415 26.415"><defs><style>.gradient{fill:url(#gradient);}</style><linearGradient id="gradient" x1="0.5" x2="0.5" y2="1" gradientUnits="objectBoundingBox"><stop offset="0" stop-color="#fd7a58"/><stop offset="1" stop-color="#f85c71"/><stop offset="1" stop-color="#fcb4ce"/></linearGradient></defs><path d="M24.831,15.32a2.441,2.441,0,0,0,0,4.718Z" transform="translate(-12.534 -8.343)"/><path d="M31,32.32v4.718a2.441,2.441,0,0,0,0-4.718Z" transform="translate(-16.882 -17.6)"/><path d="M3.643,26.415H22.772a3.643,3.643,0,0,0,3.643-3.643V3.643A3.643,3.643,0,0,0,22.772,0H3.643A3.643,3.643,0,0,0,0,3.643V22.772A3.643,3.643,0,0,0,3.643,26.415ZM24.138,13.663a.455.455,0,0,1,.911,0v1.822a.455.455,0,1,1-.911,0Zm0,4.1a.455.455,0,0,1,.911,0v5.01a.455.455,0,1,1-.911,0ZM7.742,9.336A5.31,5.31,0,0,1,12.3,4.176V3.643a.911.911,0,1,1,1.822,0v.533a5.31,5.31,0,0,1,4.554,5.16,1.366,1.366,0,1,1-2.733,0,2.532,2.532,0,0,0-1.822-2.359v4.941a5.31,5.31,0,0,1,4.554,5.16,5.31,5.31,0,0,1-4.554,5.16v.533a.911.911,0,1,1-1.822,0v-.533a5.31,5.31,0,0,1-4.554-5.16,1.366,1.366,0,1,1,2.733,0A2.532,2.532,0,0,0,12.3,19.438V14.5A5.31,5.31,0,0,1,7.742,9.336ZM1.366,3.188a.455.455,0,1,1,.911,0V8.2a.455.455,0,0,1-.911,0Zm0,7.287a.455.455,0,0,1,.911,0V12.3a.455.455,0,1,1-.911,0Z"/></svg>