<svg viewBox="0 0 59 59" fill="none" xmlns="http://www.w3.org/2000/svg">
<g clip-path="url(#clip0)">
<path d="M4.04738 35.6386L7.78785 23.4597C7.83245 17.2795 10.2414 11.4585 14.5823 7.05089C18.9593 2.60691 24.8015 0.104152 31.0326 0.0035527C35.4622 -0.0699663 39.7961 1.08306 43.5632 3.33219C44.1097 3.65841 44.2882 4.36583 43.9618 4.91227C43.6355 5.4587 42.9281 5.6372 42.3817 5.31086C38.9829 3.2816 35.07 2.24392 31.0699 2.30776C19.5026 2.49467 10.0919 12.0617 10.0919 23.6346C10.0919 23.7493 10.0749 23.8633 10.0411 23.9729L6.25329 36.3061H11.422C12.0584 36.3061 12.5743 36.8221 12.5743 37.4585V43.8213C12.5743 46.8535 15.0411 49.3204 18.0732 49.3204H26.8742C29.614 49.3204 32.1897 48.2534 34.127 46.3161C34.577 45.8662 35.3066 45.8662 35.7567 46.3161C36.2067 46.7661 36.2067 47.4958 35.7567 47.9459C33.4639 50.2387 30.4409 51.5357 27.2123 51.6204L28.9053 57.5304C29.0806 58.1423 28.7267 58.7803 28.1149 58.9555C28.0089 58.9859 27.9021 59.0004 27.797 59.0004C27.2958 59.0004 26.8347 58.6709 26.6898 58.1651L24.8164 51.6252H18.0734C13.7704 51.6252 10.2698 48.1245 10.2698 43.8214V38.6109H6.24373C5.50716 38.6109 4.83362 38.2712 4.39585 37.6788C3.95807 37.0861 3.83109 36.3427 4.04738 35.6386Z" fill="white"/>
<path d="M52.7479 23.2629C52.6803 19.282 51.5216 15.4247 49.3974 12.1084C49.0541 11.5726 49.2103 10.8599 49.7461 10.5166C50.2819 10.1734 50.9947 10.3294 51.3379 10.8653C53.693 14.5417 54.9774 18.8151 55.0522 23.2237C55.1282 27.6938 53.9664 32.6822 51.8647 36.9101C49.8442 40.9749 49.3041 45.5885 50.3439 49.901L52.1949 57.5773C52.3442 58.1958 51.9635 58.8184 51.3449 58.9676C51.2541 58.9893 51.1633 58.9998 51.0737 58.9998C50.5537 58.9998 50.0818 58.6452 49.9545 58.1174L48.1035 50.4411C46.9368 45.603 47.5396 40.4332 49.8008 35.8842C51.7437 31.9762 52.8179 27.3758 52.7479 23.2629Z" fill="white"/>
<path d="M47.8835 6.6412C48.3445 7.08013 48.3622 7.80956 47.9233 8.27039L47.9221 8.27154C47.6958 8.50927 47.3924 8.62888 47.0884 8.62888C46.8029 8.62888 46.5169 8.52321 46.2936 8.31072C45.8327 7.87179 45.8155 7.14178 46.2545 6.68096C46.6934 6.22002 47.4228 6.20216 47.8835 6.6412Z" fill="white"/>
<path d="M29.9509 16.2647C30.0381 16.0962 30.1566 15.9429 30.3027 15.809C30.6472 15.494 31.0807 15.3449 31.5584 15.3771C32.3465 15.4304 33.032 16.1021 33.0863 16.8744C33.1273 17.4597 32.8599 18.0066 32.3708 18.3374C29.4804 20.2921 27.7549 23.4643 27.7549 26.8232C27.7549 27.7959 28.1441 28.7077 28.851 29.3905C29.5448 30.0608 30.4595 30.4281 31.4321 30.428C31.4501 30.428 31.4683 30.4279 31.4864 30.4276C33.4574 30.4 35.0835 28.7658 35.1112 26.7849C35.1248 25.8104 35.6622 24.8707 36.5483 24.2715C39.1973 22.4802 40.6465 19.5295 40.4249 16.3785C40.1174 12.0086 36.5232 8.48605 32.0643 8.18457C29.5738 8.01659 27.1023 8.87452 25.2832 10.5386C24.5166 11.2399 23.885 12.0623 23.406 12.9831C22.8269 14.0968 22.8806 15.4006 23.5498 16.4711C24.2261 17.5529 25.4013 18.1988 26.6935 18.1988C28.0854 18.199 29.3335 17.4577 29.9509 16.2647ZM25.641 15.2158C25.5353 15.0469 25.319 14.5975 25.5909 14.0747C25.9399 13.4038 26.3993 12.8053 26.9566 12.2955C28.2808 11.0841 30.0809 10.4601 31.896 10.5821C35.1401 10.8015 37.7554 13.3644 37.979 16.5438C38.1405 18.8396 37.0852 20.989 35.1562 22.2936C33.6175 23.3341 32.6843 25.0007 32.6597 26.7519C32.65 27.4445 32.108 28.0155 31.4516 28.0247C31.1158 28.0304 30.8081 27.9066 30.5727 27.6791C30.337 27.4514 30.2073 27.1475 30.2073 26.8232C30.2073 24.2542 31.5368 21.8214 33.7638 20.3154C34.9729 19.4977 35.6342 18.1495 35.5328 16.7089C35.3951 14.7526 33.7237 13.1145 31.728 12.9795C31.6284 12.9728 31.5295 12.9694 31.431 12.9694C30.385 12.9694 29.3996 13.3482 28.63 14.0521C28.2732 14.3784 27.9819 14.757 27.7644 15.1774C27.5701 15.5529 27.15 15.7956 26.694 15.7956C26.0708 15.7958 25.75 15.3902 25.641 15.2158Z" fill="white"/>
<path d="M35.1836 37.0022C35.1836 38.9084 33.6328 40.4592 31.7266 40.4592C29.8203 40.4592 28.2695 38.9084 28.2695 37.0022C28.2695 35.096 29.8203 33.5452 31.7266 33.5452C33.6328 33.5452 35.1836 35.096 35.1836 37.0022ZM30.5742 37.0022C30.5742 37.6376 31.0912 38.1545 31.7266 38.1545C32.362 38.1545 32.8789 37.6376 32.8789 37.0022C32.8789 36.3668 32.362 35.8499 31.7266 35.8499C31.0912 35.8499 30.5742 36.3669 30.5742 37.0022Z" fill="white"/>
</g>
<defs>
<clipPath id="clip0">
<rect width="59" height="59" transform="matrix(-1 0 0 1 59 0)" fill="white"/>
</clipPath>
</defs>
</svg>
