<svg viewBox="0 0 512 472" fill="none" xmlns="http://www.w3.org/2000/svg">
<path d="M474.216 218L509.071 183.145C511.931 180.285 512.786 175.983 511.238 172.247C509.69 168.51 506.044 166.074 501.999 166.074H429.748C420.304 127.414 400.483 92.187 372.148 63.851C330.975 22.676 276.23 0 218 0C159.77 0 105.025 22.676 63.851 63.851C22.676 105.026 0 159.77 0 218C0 276.23 22.676 330.975 63.851 372.149C76.095 384.393 89.546 394.987 103.925 403.849L73.798 457.074C72.046 460.17 72.07 463.964 73.862 467.036C75.653 470.11 78.942 472 82.5 472H134C137.603 472 140.928 470.062 142.703 466.926L164.005 429.291C181.44 433.714 199.544 436 218 436C236.456 436 254.56 433.714 271.995 429.291L293.297 466.926C295.072 470.062 298.397 472 302 472H353.5C357.058 472 360.347 470.11 362.139 467.037C363.931 463.964 363.955 460.17 362.203 457.075L332.076 403.85C346.455 394.987 359.906 384.394 372.15 372.15C400.474 343.826 420.305 308.584 429.748 269.927H502C506.044 269.927 509.691 267.49 511.239 263.754C512.787 260.018 511.931 255.716 509.072 252.856L474.216 218ZM455.931 208H386.142L408.068 186.074H477.858L455.931 208ZM128.169 452H99.651L121.417 413.547C128.887 417.245 136.556 420.516 144.402 423.322L128.169 452ZM336.349 452H307.831L291.598 423.322C299.444 420.516 307.113 417.245 314.583 413.547L336.349 452ZM358.007 358.007C344.797 371.217 330.043 382.319 314.161 391.169C313.965 391.264 313.767 391.354 313.574 391.463C313.453 391.532 313.343 391.611 313.226 391.684C301.043 398.386 288.205 403.767 274.884 407.741C274.36 407.845 273.842 407.999 273.331 408.191C255.577 413.329 236.995 416 218 416C199.005 416 180.423 413.329 162.669 408.192C162.157 408 161.639 407.846 161.114 407.742C147.794 403.768 134.956 398.387 122.774 391.685C122.657 391.612 122.547 391.533 122.426 391.464C122.233 391.355 122.036 391.265 121.84 391.17C105.958 382.32 91.204 371.218 77.994 358.007C40.596 320.61 20 270.888 20 218C20 165.112 40.596 115.39 77.993 77.993C115.39 40.596 165.112 20 218 20C270.888 20 320.61 40.596 358.007 77.993C382.58 102.566 400.106 132.837 409.105 166.074H403.927C401.275 166.074 398.731 167.128 396.856 169.003L370.315 195.544C367.637 177.363 361.759 159.685 352.883 143.608C350.214 138.773 344.13 137.019 339.295 139.687C334.46 142.356 332.705 148.44 335.374 153.275C344.867 170.469 350.17 189.163 351.527 208.001H307.435C305.209 187.745 296.258 168.98 281.64 154.362C264.641 137.362 242.04 128 218 128C193.96 128 171.359 137.362 154.361 154.36C137.362 171.36 128 193.96 128 218C128 242.04 137.362 264.641 154.36 281.639C171.359 298.638 193.96 308 218 308C242.04 308 264.641 298.638 281.639 281.64C296.257 267.022 305.208 248.257 307.434 228H351.483C349.098 259.26 335.907 289.596 312.752 312.752C287.443 338.062 253.792 352 218 352C182.208 352 148.557 338.062 123.248 312.752C97.938 287.443 84 253.793 84 218C84 182.207 97.938 148.557 123.248 123.248C165.23 81.266 230.81 71.964 282.726 100.627C287.56 103.295 293.644 101.541 296.314 96.706C298.983 91.871 297.228 85.788 292.393 83.118C263.748 67.303 230.019 61 197.422 65.374C163.737 69.892 133.197 85.014 109.106 109.106C80.019 138.193 64 176.865 64 218C64 259.135 80.019 297.808 109.105 326.894C138.192 355.981 176.865 372 218 372C259.135 372 297.808 355.981 326.894 326.895C350.529 303.261 365.523 273.42 370.35 240.493L396.855 266.998C398.73 268.873 401.274 269.927 403.926 269.927H409.102C400.103 303.162 382.57 333.444 358.007 358.007ZM250.66 199.144C247.899 194.36 241.783 192.722 237 195.484L213 209.34C209.906 211.126 208 214.427 208 218C208 221.573 209.906 224.874 213 226.66L237 240.516C238.575 241.425 240.294 241.857 241.991 241.857C245.447 241.857 248.808 240.064 250.66 236.856C252.283 234.046 252.376 230.779 251.215 228H287.287C285.168 242.903 278.331 256.664 267.497 267.497C254.276 280.719 236.698 288 218 288C199.302 288 181.724 280.719 168.502 267.497C155.281 254.276 148 236.698 148 218C148 199.302 155.281 181.724 168.503 168.502C181.724 155.281 199.302 148 218 148C236.698 148 254.276 155.281 267.498 168.503C278.331 179.336 285.169 193.097 287.288 208H251.216C252.376 205.22 252.283 201.954 250.66 199.144ZM408.068 249.926L386.142 228H455.931L477.858 249.926H408.068Z" fill="url(#paint0_linear)"/>
<defs>
<linearGradient id="paint0_linear" x1="256" y1="0" x2="256" y2="472" gradientUnits="userSpaceOnUse">
<stop stop-color="#F85C71"/>
<stop offset="1" stop-color="#1D4E89"/>
</linearGradient>
</defs>
</svg>
