<svg xmlns="http://www.w3.org/2000/svg" width="29.703" height="23.338" viewBox="0 0 29.703 23.338"><defs><style>.nav{fill:#D2D8DD;}</style></defs><g transform="translate(0 -54.82)"><g transform="translate(0 54.82)"><path class="nav" d="M2.851,62.014q.564.4,3.4,2.362T10.592,67.4q.166.116.7.506t.895.63q.356.24.862.539a5,5,0,0,0,.953.447,2.626,2.626,0,0,0,.829.149h.033a2.628,2.628,0,0,0,.829-.149,5.006,5.006,0,0,0,.953-.447q.505-.3.862-.539t.9-.63q.539-.39.7-.506,1.525-1.061,7.757-5.387a7.874,7.874,0,0,0,2.022-2.039,4.377,4.377,0,0,0,.812-2.5,2.675,2.675,0,0,0-2.652-2.652H2.652a2.367,2.367,0,0,0-1.964.862A3.346,3.346,0,0,0,0,57.837,3.872,3.872,0,0,0,.912,60.1,8.227,8.227,0,0,0,2.851,62.014Z" transform="translate(0 -54.82)"/><path class="nav" d="M28.045,185.879q-5.436,3.679-8.254,5.719-.945.7-1.533,1.086a9.461,9.461,0,0,1-1.566.8,4.77,4.77,0,0,1-1.823.406h-.034a4.771,4.771,0,0,1-1.823-.406,9.466,9.466,0,0,1-1.566-.8q-.588-.389-1.533-1.086-2.238-1.641-8.238-5.719A8.779,8.779,0,0,1,0,184.437V197.6a2.553,2.553,0,0,0,.779,1.873,2.553,2.553,0,0,0,1.873.779h24.4A2.66,2.66,0,0,0,29.7,197.6v-13.16A9.139,9.139,0,0,1,28.045,185.879Z" transform="translate(0 -176.912)"/></g></g></svg>