<svg width="26" height="26" viewBox="0 0 26 26" fill="none" xmlns="http://www.w3.org/2000/svg">
<path d="M11.8656 18.1545C12.0096 18.2983 12.2048 18.3792 12.4085 18.3792C12.612 18.3792 12.8072 18.2985 12.9512 18.1545L15.692 15.4137C15.9919 15.1137 15.9919 14.6278 15.692 14.3278C15.3923 14.0281 14.9061 14.0281 14.6064 14.3278L12.4085 16.5257L11.4063 15.5236C11.1064 15.2238 10.6204 15.2238 10.3205 15.5236C10.0208 15.8233 10.0208 16.3095 10.3205 16.6094L11.8656 18.1545Z" fill="#1D4E89"/>
<path d="M13.0057 22.3359C16.3662 22.3359 19.1 19.6018 19.1 16.2413C19.1 12.8808 16.3662 10.147 13.0057 10.147C9.64499 10.147 6.91113 12.8808 6.91113 16.2413C6.91113 19.6018 9.64519 22.3359 13.0057 22.3359ZM13.0057 11.6823C15.5195 11.6823 17.5647 13.7274 17.5647 16.2413C17.5647 18.7552 15.5195 20.8005 13.0057 20.8005C10.4918 20.8005 8.44647 18.7552 8.44647 16.2413C8.44647 13.7274 10.4918 11.6823 13.0057 11.6823Z" fill="#1D4E89"/>
<path d="M23.2245 1.63472H21.8242V0.76767C21.8242 0.343765 21.4805 0 21.0566 0C20.6327 0 20.2889 0.343765 20.2889 0.76767V1.63472H18.7803V0.76767C18.7803 0.343765 18.4366 0 18.0125 0C17.5886 0 17.2448 0.343765 17.2448 0.76767V1.63472H8.7675V0.76767C8.7675 0.343765 8.42374 0 7.99963 0C7.57573 0 7.23196 0.343765 7.23196 0.76767V1.63472H5.7234V0.76767C5.7234 0.343765 5.37964 0 4.95554 0C4.53163 0 4.18787 0.343765 4.18787 0.76767V1.63472H2.78741C1.4185 1.63472 0.304688 2.74854 0.304688 4.11765V23.5173C0.304688 24.8862 1.4185 26 2.78741 26H23.2245C24.5936 26 25.7072 24.8862 25.7072 23.5173V4.11765C25.7072 2.74854 24.5934 1.63472 23.2245 1.63472ZM24.1717 23.5173C24.1717 24.0396 23.7468 24.4647 23.2245 24.4647H2.78741C2.26512 24.4647 1.84003 24.0396 1.84003 23.5173V8.01828H24.1717V23.5173ZM1.84003 4.11765C1.84003 3.59515 2.26512 3.17026 2.78741 3.17026H4.18787V4.03731C4.18787 4.46121 4.53163 4.80498 4.95573 4.80498C5.37964 4.80498 5.7234 4.46121 5.7234 4.03731V3.17026H7.23196V4.03731C7.23196 4.46121 7.57573 4.80498 7.99983 4.80498C8.42374 4.80498 8.7675 4.46121 8.7675 4.03731V3.17026H17.2448V4.03731C17.2448 4.46121 17.5886 4.80498 18.0127 4.80498C18.4366 4.80498 18.7803 4.46121 18.7803 4.03731V3.17026H20.2889V4.03731C20.2889 4.46121 20.6327 4.80498 21.0566 4.80498C21.4807 4.80498 21.8244 4.46121 21.8244 4.03731V3.17026H23.2245C23.7468 3.17026 24.1719 3.59515 24.1719 4.11765V6.48274H1.84003V4.11765Z" fill="#1D4E89"/>
</svg>
