<svg width="11" height="10" viewBox="0 0 11 10" fill="none" xmlns="http://www.w3.org/2000/svg">
<path d="M5.5 0C2.46712 0 0 2.24305 0 5C0 7.75695 2.46712 10 5.5 10C8.53288 10 11 7.75695 11 5C11 2.24305 8.53288 0 5.5 0ZM7.72449 6.7277L7.40051 7.02227C7.31098 7.10361 7.16592 7.10361 7.07639 7.02227L5.17587 5.29451C5.08995 5.21639 5.04167 5.11045 5.04167 5V1.66666C5.04167 1.55158 5.14428 1.45832 5.27085 1.45832H5.72917C5.85574 1.45832 5.95835 1.55158 5.95835 1.66666V4.82746L7.72451 6.43307C7.81402 6.51443 7.81402 6.64635 7.72449 6.7277Z" fill="url(#paint0_linear)"/>
<defs>
<linearGradient id="paint0_linear" x1="5.5" y1="0" x2="5.5" y2="10" gradientUnits="userSpaceOnUse">
<stop stop-color="#FD7A58"/>
<stop offset="1" stop-color="#F85C71"/>
</linearGradient>
</defs>
</svg>
