<svg width="120" height="116" viewBox="0 0 120 116" fill="none" xmlns="http://www.w3.org/2000/svg">
<rect width="120" height="116" fill="url(#paint0_linear)"/>
<path d="M53.9821 69.6276H50.2588C49.8858 69.6276 49.5281 69.7708 49.2644 70.0257C49.0007 70.2806 48.8525 70.6264 48.8525 70.9869C48.8525 71.3475 49.0007 71.6932 49.2644 71.9482C49.5281 72.2031 49.8858 72.3463 50.2588 72.3463H53.9821C54.355 72.3463 54.7127 72.2031 54.9764 71.9482C55.2402 71.6932 55.3883 71.3475 55.3883 70.9869C55.3883 70.6264 55.2402 70.2806 54.9764 70.0257C54.7127 69.7708 54.355 69.6276 53.9821 69.6276Z" fill="#1D4E89"/>
<path d="M32.4512 72.3463H45.1407C45.5137 72.3463 45.8714 72.2031 46.1351 71.9482C46.3988 71.6932 46.547 71.3475 46.547 70.9869C46.547 70.6264 46.3988 70.2806 46.1351 70.0257C45.8714 69.7708 45.5137 69.6276 45.1407 69.6276H32.4512C32.0782 69.6276 31.7205 69.7708 31.4568 70.0257C31.1931 70.2806 31.0449 70.6264 31.0449 70.9869C31.0449 71.3475 31.1931 71.6932 31.4568 71.9482C31.7205 72.2031 32.0782 72.3463 32.4512 72.3463Z" fill="#1D4E89"/>
<path d="M53.9819 79.3497H41.2656C40.8927 79.3497 40.535 79.4929 40.2713 79.7479C40.0075 80.0028 39.8594 80.3486 39.8594 80.7091C39.8594 81.0696 40.0075 81.4154 40.2713 81.6703C40.535 81.9253 40.8927 82.0685 41.2656 82.0685H53.9819C54.3548 82.0685 54.7125 81.9253 54.9762 81.6703C55.24 81.4154 55.3881 81.0696 55.3881 80.7091C55.3881 80.3486 55.24 80.0028 54.9762 79.7479C54.7125 79.4929 54.3548 79.3497 53.9819 79.3497Z" fill="#1D4E89"/>
<path d="M32.4512 82.0685H36.1461C36.5191 82.0685 36.8767 81.9253 37.1405 81.6703C37.4042 81.4154 37.5524 81.0696 37.5524 80.7091C37.5524 80.3486 37.4042 80.0028 37.1405 79.7479C36.8767 79.4929 36.5191 79.3497 36.1461 79.3497H32.4512C32.0782 79.3497 31.7205 79.4929 31.4568 79.7479C31.1931 80.0028 31.0449 80.3486 31.0449 80.7091C31.0449 81.0696 31.1931 81.4154 31.4568 81.6703C31.7205 81.9253 32.0782 82.0685 32.4512 82.0685Z" fill="#1D4E89"/>
<path d="M53.9821 89.0717H43.4336C43.0606 89.0717 42.7029 89.2149 42.4392 89.4699C42.1755 89.7248 42.0273 90.0706 42.0273 90.4311C42.0273 90.7916 42.1755 91.1374 42.4392 91.3923C42.7029 91.6472 43.0606 91.7905 43.4336 91.7905H53.9821C54.3551 91.7905 54.7127 91.6472 54.9765 91.3923C55.2402 91.1374 55.3883 90.7916 55.3883 90.4311C55.3883 90.0706 55.2402 89.7248 54.9765 89.4699C54.7127 89.2149 54.3551 89.0717 53.9821 89.0717Z" fill="#1D4E89"/>
<path d="M32.4512 91.7905H38.4746C38.8476 91.7905 39.2053 91.6472 39.469 91.3923C39.7327 91.1374 39.8809 90.7916 39.8809 90.4311C39.8809 90.0706 39.7327 89.7248 39.469 89.4699C39.2053 89.2149 38.8476 89.0717 38.4746 89.0717H32.4512C32.0782 89.0717 31.7205 89.2149 31.4568 89.4699C31.1931 89.7248 31.0449 90.0706 31.0449 90.4311C31.0449 90.7916 31.1931 91.1374 31.4568 91.3923C31.7205 91.6472 32.0782 91.7905 32.4512 91.7905Z" fill="#1D4E89"/>
<path d="M53.9817 98.7939H49.6582C49.2852 98.7939 48.9276 98.9371 48.6638 99.192C48.4001 99.447 48.252 99.7927 48.252 100.153C48.252 100.514 48.4001 100.86 48.6638 101.114C48.9276 101.369 49.2852 101.513 49.6582 101.513H53.9817C54.3547 101.513 54.7124 101.369 54.9761 101.114C55.2398 100.86 55.388 100.514 55.388 100.153C55.388 99.7927 55.2398 99.447 54.9761 99.192C54.7124 98.9371 54.3547 98.7939 53.9817 98.7939Z" fill="#1D4E89"/>
<path d="M44.6457 98.7939H32.4512C32.0782 98.7939 31.7205 98.9371 31.4568 99.192C31.1931 99.447 31.0449 99.7927 31.0449 100.153C31.0449 100.514 31.1931 100.86 31.4568 101.114C31.7205 101.369 32.0782 101.513 32.4512 101.513H44.6457C45.0187 101.513 45.3764 101.369 45.6401 101.114C45.9038 100.86 46.052 100.514 46.052 100.153C46.052 99.7927 45.9038 99.447 45.6401 99.192C45.3764 98.9371 45.0187 98.7939 44.6457 98.7939Z" fill="#1D4E89"/>
<path d="M90.9397 69.6276H78.5352C78.1622 69.6276 77.8045 69.7708 77.5408 70.0257C77.2771 70.2806 77.1289 70.6264 77.1289 70.9869C77.1289 71.3475 77.2771 71.6932 77.5408 71.9482C77.8045 72.2031 78.1622 72.3463 78.5352 72.3463H90.9397C91.3126 72.3463 91.6703 72.2031 91.9341 71.9482C92.1978 71.6932 92.3459 71.3475 92.3459 70.9869C92.3459 70.6264 92.1978 70.2806 91.9341 70.0257C91.6703 69.7708 91.3126 69.6276 90.9397 69.6276Z" fill="#1D4E89"/>
<path d="M69.4082 72.3463H73.5217C73.8947 72.3463 74.2524 72.2031 74.5161 71.9482C74.7798 71.6932 74.928 71.3475 74.928 70.9869C74.928 70.6264 74.7798 70.2806 74.5161 70.0257C74.2524 69.7708 73.8947 69.6276 73.5217 69.6276H69.4082C69.0352 69.6276 68.6776 69.7708 68.4138 70.0257C68.1501 70.2806 68.002 70.6264 68.002 70.9869C68.002 71.3475 68.1501 71.6932 68.4138 71.9482C68.6776 72.2031 69.0352 72.3463 69.4082 72.3463Z" fill="#1D4E89"/>
<path d="M90.9396 79.3497H85.4063C85.0333 79.3497 84.6756 79.4929 84.4119 79.7479C84.1482 80.0028 84 80.3486 84 80.7091C84 81.0696 84.1482 81.4154 84.4119 81.6703C84.6756 81.9253 85.0333 82.0685 85.4063 82.0685H90.9396C91.3126 82.0685 91.6703 81.9253 91.934 81.6703C92.1977 81.4154 92.3459 81.0696 92.3459 80.7091C92.3459 80.3486 92.1977 80.0028 91.934 79.7479C91.6703 79.4929 91.3126 79.3497 90.9396 79.3497Z" fill="#1D4E89"/>
<path d="M69.4082 82.0685H80.1735C80.5465 82.0685 80.9042 81.9253 81.1679 81.6703C81.4316 81.4154 81.5798 81.0696 81.5798 80.7091C81.5798 80.3486 81.4316 80.0028 81.1679 79.7479C80.9042 79.4929 80.5465 79.3497 80.1735 79.3497H69.4082C69.0352 79.3497 68.6776 79.4929 68.4138 79.7479C68.1501 80.0028 68.002 80.3486 68.002 80.7091C68.002 81.0696 68.1501 81.4154 68.4138 81.6703C68.6776 81.9253 69.0352 82.0685 69.4082 82.0685Z" fill="#1D4E89"/>
<path d="M90.9398 89.0717H85.8633C85.4903 89.0717 85.1326 89.2149 84.8689 89.4699C84.6052 89.7248 84.457 90.0706 84.457 90.4311C84.457 90.7916 84.6052 91.1374 84.8689 91.3923C85.1326 91.6472 85.4903 91.7905 85.8633 91.7905H90.9398C91.3128 91.7905 91.6705 91.6472 91.9342 91.3923C92.1979 91.1374 92.3461 90.7916 92.3461 90.4311C92.3461 90.0706 92.1979 89.7248 91.9342 89.4699C91.6705 89.2149 91.3128 89.0717 90.9398 89.0717Z" fill="#1D4E89"/>
<path d="M69.4082 91.7905H80.8574C81.2304 91.7905 81.5881 91.6472 81.8518 91.3923C82.1155 91.1374 82.2637 90.7916 82.2637 90.4311C82.2637 90.0706 82.1155 89.7248 81.8518 89.4699C81.5881 89.2149 81.2304 89.0717 80.8574 89.0717H69.4082C69.0352 89.0717 68.6776 89.2149 68.4138 89.4699C68.1501 89.7248 68.002 90.0706 68.002 90.4311C68.002 90.7916 68.1501 91.1374 68.4138 91.3923C68.6776 91.6472 69.0352 91.7905 69.4082 91.7905Z" fill="#1D4E89"/>
<path d="M90.9394 98.7939H78.5332C78.1602 98.7939 77.8026 98.9371 77.5388 99.192C77.2751 99.447 77.127 99.7927 77.127 100.153C77.127 100.514 77.2751 100.86 77.5388 101.114C77.8026 101.369 78.1602 101.513 78.5332 101.513H90.9394C91.3123 101.513 91.67 101.369 91.9337 101.114C92.1975 100.86 92.3456 100.514 92.3456 100.153C92.3456 99.7927 92.1975 99.447 91.9337 99.192C91.67 98.9371 91.3123 98.7939 90.9394 98.7939Z" fill="#1D4E89"/>
<path d="M73.2888 98.7939H69.4082C69.0352 98.7939 68.6776 98.9371 68.4138 99.192C68.1501 99.447 68.002 99.7927 68.002 100.153C68.002 100.514 68.1501 100.86 68.4138 101.114C68.6776 101.369 69.0352 101.513 69.4082 101.513H73.2888C73.6617 101.513 74.0194 101.369 74.2831 101.114C74.5468 100.86 74.695 100.514 74.695 100.153C74.695 99.7927 74.5468 99.447 74.2831 99.192C74.0194 98.9371 73.6617 98.7939 73.2888 98.7939Z" fill="#1D4E89"/>
<path d="M101.111 27.4908C97.4159 19.9756 91.5923 13.627 84.3157 9.18166C77.0391 4.73627 68.6079 2.37621 60 2.37524C34.886 2.37524 14.4541 22.1741 14.4541 46.5096C14.4541 56.859 17.729 66.0312 24.1846 73.7828V105.366C24.1851 106.674 24.7226 107.929 25.6791 108.855C26.6356 109.781 27.9331 110.302 29.2868 110.305H57.7657L60.7101 113.081C61.0781 113.432 61.5743 113.629 62.0913 113.629C62.6083 113.629 63.1044 113.432 63.4725 113.081L66.4171 110.305H94.5304C95.8841 110.303 97.1815 109.781 98.1381 108.855C99.0946 107.929 99.632 106.674 99.6325 105.366V68.5231C103.477 61.7789 105.51 54.2103 105.546 46.5101C105.564 39.9288 104.048 33.4282 101.111 27.4908ZM98.5711 28.6581C101.328 34.2314 102.751 40.3335 102.733 46.5112C102.733 46.6041 102.729 46.6981 102.728 46.7912L101.022 46.9575C100.935 46.9661 100.847 46.9723 100.759 46.9761L99.9157 47.0133C98.8848 47.0553 97.8871 47.3772 97.0369 47.9422C96.1866 48.5073 95.5184 49.2925 95.1086 50.2078L94.8925 50.6836C94.5052 51.5406 93.868 52.2699 93.0587 52.7824C92.2495 53.2948 91.3033 53.5682 90.3358 53.5691H86.7459C86.2414 53.5696 85.7548 53.3881 85.3815 53.0602C85.0081 52.7322 84.7748 52.2813 84.7272 51.7958L84.5838 50.4047C84.5039 49.609 84.2387 48.8412 83.808 48.1588C83.3773 47.4763 82.7924 46.897 82.0971 46.4643C81.7559 46.2516 81.4755 45.9594 81.2818 45.6145C81.088 45.2696 80.9871 44.8832 80.9882 44.4907V43.0974C80.9881 42.6606 81.0837 42.2288 81.269 41.8304C81.4542 41.4321 81.7248 41.0762 82.0629 40.7864L88.1953 35.5363C89.0073 34.8383 89.596 33.9305 89.8921 32.9199C90.1882 31.9092 90.1792 30.8378 89.8664 29.8319C89.5416 28.7923 88.9115 27.8662 88.0527 27.1661C87.1939 26.4661 86.1432 26.0221 85.0284 25.8881L84.4092 25.8143C83.5818 25.7157 82.8212 25.3251 82.2736 24.7175C81.9905 24.4034 81.8148 24.0124 81.7702 23.5981C81.7257 23.1838 81.8147 22.7663 82.0249 22.4027L87.0375 14.4023C87.9864 15.1489 88.9004 15.9333 89.7796 16.7556C93.4252 20.1811 96.4031 24.2128 98.5711 28.6581ZM81.3597 10.6307C82.5382 11.2831 83.6804 11.9884 84.7865 12.7468L79.6089 21.0118C79.6024 21.0222 79.5961 21.0327 79.59 21.0431C79.0868 21.8979 78.871 22.8828 78.9725 23.8614C79.0739 24.84 79.4876 25.764 80.1562 26.5053C81.159 27.6175 82.5516 28.3324 84.0665 28.5126L84.6855 28.5865C85.2595 28.6558 85.8004 28.8847 86.2424 29.2454C86.6844 29.6061 87.0086 30.0831 87.1755 30.6185C87.3337 31.1267 87.3383 31.6681 87.1888 32.1787C87.0393 32.6894 86.742 33.1481 86.3318 33.5009L80.1984 38.751C79.5625 39.2959 79.0534 39.9649 78.7047 40.7141C78.3561 41.4632 78.1758 42.2752 78.1757 43.0967V44.49C78.1736 45.3366 78.3918 46.1702 78.8101 46.9139C79.2284 47.6577 79.8335 48.2879 80.5696 48.7465C80.9096 48.9582 81.1955 49.2416 81.406 49.5754C81.6165 49.9092 81.746 50.2847 81.7849 50.6738L81.9286 52.0649C82.0435 53.2222 82.601 54.2964 83.4919 55.0773C84.3829 55.8582 85.5432 56.2896 86.7459 56.2872H90.3363C91.8503 56.2862 93.3312 55.8589 94.598 55.0573C95.8647 54.2558 96.8624 53.1147 97.469 51.7738L97.6851 51.298C97.886 50.8486 98.2139 50.4629 98.6311 50.1853C99.0483 49.9077 99.538 49.7493 100.044 49.7284L100.888 49.6912C101.027 49.6853 101.166 49.6754 101.305 49.662L102.608 49.5349C102.195 54.5489 100.906 59.4592 98.7977 64.0576C98.3346 63.3716 97.702 62.808 96.9571 62.4176C96.2121 62.0273 95.3783 61.8226 94.5309 61.8221H66.5831C65.4882 61.8209 64.4118 62.0952 63.4598 62.618C63.8157 61.8058 64.3827 61.0964 65.1058 60.5585L70.0511 56.878C70.5165 56.5313 70.9043 56.0969 71.1911 55.6012C71.4779 55.1054 71.6576 54.5586 71.7196 53.9938C71.7815 53.429 71.7242 52.8579 71.5513 52.315C71.3784 51.7722 71.0934 51.2689 70.7135 50.8356L67.45 47.115C67.3021 46.9462 67.1601 46.7699 67.0282 46.591L64.4618 43.1246C63.5815 41.9374 62.4333 40.9595 61.1041 40.2649C59.7749 39.5703 58.2996 39.1772 56.79 39.1155L52.0115 36.3372C50.8837 35.6851 49.6006 35.3261 48.2868 35.2952C46.9731 35.2643 45.6734 35.5624 44.5141 36.1607L41.8272 37.5556C41.243 37.856 40.563 37.9321 39.9232 37.7688C39.2834 37.6055 38.731 37.2148 38.3763 36.6748L35.7656 32.6802C35.4506 32.1981 35.2878 31.6378 35.2969 31.0677C35.306 30.4975 35.4867 29.9423 35.8169 29.4699C36.2046 28.9109 36.7458 28.4676 37.3799 28.1897C38.0139 27.9119 38.7155 27.8105 39.4059 27.8971L43.3558 28.383C44.5554 28.5313 45.7737 28.3352 46.8589 27.8191C47.944 27.303 48.8482 26.4897 49.4587 25.4805C49.8075 24.9036 50.3241 24.4387 50.9443 24.1437C51.5645 23.8487 52.2608 23.7366 52.9464 23.8214L54.6574 24.033C55.7186 24.1621 56.7964 24.0209 57.7838 23.6236C58.7713 23.2262 59.6343 22.5863 60.2873 21.7674L61.7957 19.8711C62.8059 18.607 63.373 17.0645 63.4146 15.4676C63.4561 13.8707 62.97 12.3026 62.0268 10.991L57.8444 5.14565C58.5583 5.11091 59.2765 5.09339 59.999 5.09309C67.4992 5.09072 74.8673 7.00085 81.3597 10.6307ZM54.622 5.42092L59.7147 12.5384C60.3177 13.3768 60.6285 14.3792 60.6019 15.3999C60.5753 16.4207 60.2127 17.4067 59.5668 18.2147L58.0586 20.111C57.7055 20.5536 57.239 20.8994 56.7053 21.1143C56.1715 21.3292 55.589 21.4058 55.0153 21.3365L53.3043 21.1247C52.072 20.9714 50.8202 21.1722 49.7051 21.7021C48.59 22.232 47.661 23.0675 47.0339 24.1044C46.7016 24.6539 46.2096 25.0969 45.6189 25.3781C45.0282 25.6593 44.365 25.7664 43.7118 25.686L39.7617 25.2001C38.5549 25.0485 37.3284 25.2253 36.2199 25.7108C35.1115 26.1962 34.1651 26.9709 33.4872 27.9478C32.851 28.8581 32.5029 29.9278 32.4854 31.0262C32.4679 32.1246 32.7818 33.2042 33.3888 34.133L36 38.1257C36.7363 39.2454 37.8827 40.0553 39.21 40.3934C40.5372 40.7315 41.9476 40.5729 43.1592 39.9493L45.8458 38.5546C46.5752 38.1783 47.3929 37.9907 48.2194 38.0102C49.046 38.0296 49.8533 38.2554 50.5628 38.6656L55.6619 41.6306C55.8808 41.7578 56.1314 41.825 56.3868 41.825C57.519 41.8267 58.6344 42.0889 59.6411 42.5897C60.6477 43.0906 61.5166 43.8158 62.1759 44.7055L64.7421 48.1719C64.9188 48.4107 65.1086 48.6461 65.3064 48.8718L68.5701 52.5926C68.7039 52.7453 68.8043 52.9227 68.8652 53.114C68.9261 53.3053 68.9463 53.5065 68.9245 53.7056C68.9028 53.9046 68.8395 54.0973 68.7385 54.2721C68.6376 54.4468 68.501 54.6 68.3371 54.7223L63.3918 58.4028C62.0529 59.3954 61.0681 60.7675 60.5749 62.3273L60.3721 62.9644C59.2972 62.2194 58.0074 61.8195 56.6847 61.8209H46.4746L43.158 57.6069C42.6705 56.9888 42.3103 56.2861 42.0968 55.5368L40.27 49.15C39.9414 48.0101 39.3132 46.9717 38.4467 46.1358C37.5801 45.3 36.5046 44.695 35.3247 44.3797L34.9277 44.2748C34.1454 44.0671 33.4276 43.6774 32.8371 43.1397L29.43 40.032C28.8962 39.5456 28.4383 38.9869 28.0706 38.3733C27.2648 37.0271 26.0439 35.958 24.5786 35.3155C23.1133 34.673 21.477 34.4893 19.8984 34.79L18.9557 34.9712C23.6404 19.3466 37.5841 7.50371 54.622 5.42092ZM17.2666 46.5101C17.2659 43.6118 17.5791 40.7214 18.2011 37.8862L20.4447 37.4571C21.4481 37.2661 22.4882 37.3831 23.4194 37.7916C24.3507 38.2002 25.1265 38.8798 25.6385 39.7356C26.1422 40.5765 26.7693 41.3423 27.5003 42.0092L30.9075 45.1167C31.8337 45.9603 32.9598 46.5716 34.1871 46.897L34.5841 47.0019C35.2942 47.1921 35.9413 47.5565 36.4626 48.0598C36.9839 48.5631 37.3617 49.1882 37.5593 49.8743L39.386 56.2611C39.6948 57.3435 40.2154 58.3587 40.9195 59.2517L42.9405 61.8198H29.2868C27.9331 61.8221 26.6356 62.3435 25.6791 63.2694C24.7226 64.1954 24.1851 65.4503 24.1846 66.7589V69.2019C19.5937 62.5831 17.2666 54.9688 17.2666 46.5101ZM59.4862 108.129C59.1175 107.779 58.6215 107.584 58.1053 107.585H29.2868C28.6787 107.583 28.0962 107.349 27.6669 106.933C27.2376 106.516 26.9968 105.952 26.9971 105.365V66.7584C26.9967 66.1706 27.2376 65.6067 27.6668 65.1904C28.0961 64.7742 28.6787 64.5395 29.2868 64.5381H56.6852C57.6262 64.5405 58.5276 64.9041 59.1913 65.5489C59.855 66.1938 60.2266 67.067 60.2243 67.9766L60.6506 109.226L59.4862 108.129ZM96.8203 105.366C96.8206 105.954 96.5798 106.518 96.1505 106.934C95.7213 107.351 95.1387 107.585 94.5307 107.587H66.0775C65.5612 107.586 65.0652 107.781 64.6964 108.131L63.4645 109.292L63.0375 67.9671H63.0428C63.0435 67.0595 63.4166 66.1891 64.0803 65.547C64.744 64.9049 65.6441 64.5436 66.5831 64.5422H94.5304C95.1385 64.5436 95.7211 64.7782 96.1504 65.1945C96.5796 65.6108 96.8205 66.1747 96.82 66.7625L96.8203 105.366Z" fill="#1D4E89"/>
<defs>
<linearGradient id="paint0_linear" x1="60" y1="0" x2="60" y2="116" gradientUnits="userSpaceOnUse">
<stop stop-color="white"/>
<stop offset="1" stop-color="white" stop-opacity="0"/>
</linearGradient>
</defs>
</svg>
