<svg width="92" height="100" viewBox="0 0 92 100" fill="none" xmlns="http://www.w3.org/2000/svg">
<path d="M20.3042 39.3724H42.6932L44.9806 41.5841C45.2906 41.887 45.7081 42.0567 46.143 42.0567C46.5779 42.0567 46.9954 41.887 47.3054 41.5841L49.5947 39.372H71.6968C72.7902 39.3705 73.8385 38.9385 74.6118 38.1705C75.3851 37.4025 75.8202 36.3613 75.8218 35.2752V4.09739C75.8204 3.01088 75.3852 1.96928 74.6116 1.20113C73.838 0.43298 72.7892 0.00101207 71.6953 4.08318e-07H49.6818C48.9397 -0.000295354 48.2065 0.160087 47.5333 0.469977C46.86 0.779867 46.2629 1.23182 45.7834 1.79435C45.3039 1.23182 44.7068 0.779867 44.0335 0.469977C43.3603 0.160087 42.6271 -0.000295354 41.885 4.08318e-07H20.3042C19.2104 0.00106523 18.1616 0.433051 17.388 1.20119C16.6144 1.96933 16.1792 3.01089 16.1777 4.09739V35.2752C16.1792 36.3616 16.6145 37.4031 17.3881 38.1712C18.1617 38.9393 19.2104 39.3713 20.3042 39.3724ZM47.0011 5.07093C47.0028 4.36586 47.286 3.69022 47.7885 3.19226C48.291 2.6943 48.9719 2.41467 49.6818 2.41473H71.6953C72.1446 2.41505 72.5755 2.59239 72.8933 2.90784C73.2112 3.22329 73.3901 3.65109 73.3908 4.09739V35.2752C73.3901 35.7215 73.2112 36.1493 72.8933 36.4647C72.5755 36.7802 72.1446 36.9575 71.6953 36.9578H49.2835C48.8492 36.9568 48.432 37.1252 48.1214 37.4267L47.3314 38.1914L46.9967 5.07093H47.0011ZM18.6088 4.09739C18.6095 3.65109 18.7884 3.22329 19.1062 2.90784C19.424 2.59239 19.8549 2.41505 20.3042 2.41473H41.885C42.2375 2.41505 42.5864 2.48432 42.9118 2.6186C43.2373 2.75287 43.5329 2.94952 43.7818 3.1973C44.0308 3.44508 44.2281 3.73915 44.3626 4.0627C44.4971 4.38626 44.5661 4.73296 44.5657 5.08301L44.8995 38.135L44.1668 37.4269C43.8562 37.1251 43.4388 36.9566 43.0043 36.9576H20.3042C19.8549 36.9573 19.424 36.78 19.1062 36.4645C18.7884 36.1491 18.6095 35.7213 18.6088 35.275V4.09739Z" fill="#2AD2C9"/>
<path d="M31.0721 9.17622H39.518C39.8176 9.17622 40.105 9.0151 40.3168 8.72829C40.5287 8.44149 40.6477 8.05249 40.6477 7.64689C40.6477 7.24128 40.5287 6.85229 40.3168 6.56549C40.105 6.27868 39.8176 6.11755 39.518 6.11755H31.0721C30.7725 6.11755 30.4851 6.27868 30.2733 6.56549C30.0614 6.85229 29.9424 7.24128 29.9424 7.64689C29.9424 8.05249 30.0614 8.44149 30.2733 8.72829C30.4851 9.0151 30.7725 9.17622 31.0721 9.17622Z" fill="#2AD2C9"/>
<path d="M22.7822 9.17622H26.3957C26.7277 9.17622 27.0462 9.0151 27.2809 8.72829C27.5157 8.44149 27.6476 8.05249 27.6476 7.64689C27.6476 7.24128 27.5157 6.85229 27.2809 6.56549C27.0462 6.27868 26.7277 6.11755 26.3957 6.11755H22.7822C22.4501 6.11755 22.1317 6.27868 21.8969 6.56549C21.6622 6.85229 21.5303 7.24128 21.5303 7.64689C21.5303 8.05249 21.6622 8.44149 21.8969 8.72829C22.1317 9.0151 22.4501 9.17622 22.7822 9.17622Z" fill="#2AD2C9"/>
<path d="M39.4162 14.5287H37.2909C36.9643 14.5287 36.6511 14.6092 36.4202 14.7527C36.1893 14.8961 36.0596 15.0906 36.0596 15.2934C36.0596 15.4962 36.1893 15.6907 36.4202 15.8341C36.6511 15.9775 36.9643 16.058 37.2909 16.058H39.4162C39.7428 16.058 40.056 15.9775 40.2869 15.8341C40.5178 15.6907 40.6476 15.4962 40.6476 15.2934C40.6476 15.0906 40.5178 14.8961 40.2869 14.7527C40.056 14.6092 39.7428 14.5287 39.4162 14.5287Z" fill="#2AD2C9"/>
<path d="M22.8235 16.058H34.001C34.344 16.058 34.673 15.9775 34.9155 15.8341C35.158 15.6907 35.2943 15.4962 35.2943 15.2934C35.2943 15.0906 35.158 14.8961 34.9155 14.7527C34.673 14.6092 34.344 14.5287 34.001 14.5287H22.8235C22.4805 14.5287 22.1516 14.6092 21.9091 14.7527C21.6665 14.8961 21.5303 15.0906 21.5303 15.2934C21.5303 15.4962 21.6665 15.6907 21.9091 15.8341C22.1516 15.9775 22.4805 16.058 22.8235 16.058Z" fill="#2AD2C9"/>
<path d="M39.472 22.1756H27.295C26.9831 22.1756 26.684 22.3367 26.4635 22.6235C26.243 22.9103 26.1191 23.2993 26.1191 23.7049C26.1191 24.1105 26.243 24.4995 26.4635 24.7863C26.684 25.0731 26.9831 25.2343 27.295 25.2343H39.472C39.7838 25.2343 40.0829 25.0731 40.3034 24.7863C40.5239 24.4995 40.6478 24.1105 40.6478 23.7049C40.6478 23.2993 40.5239 22.9103 40.3034 22.6235C40.0829 22.3367 39.7838 22.1756 39.472 22.1756Z" fill="#2AD2C9"/>
<path d="M22.2779 25.2343H22.311C22.7123 25.2343 23.0973 25.0731 23.3811 24.7863C23.6649 24.4995 23.8243 24.1105 23.8243 23.7049C23.8243 23.2993 23.6649 22.9103 23.3811 22.6235C23.0973 22.3367 22.7123 22.1756 22.311 22.1756H22.2789C21.8776 22.1756 21.4927 22.3367 21.2089 22.6235C20.9251 22.9103 20.7656 23.2993 20.7656 23.7049C20.7656 24.1105 20.9251 24.4995 21.2089 24.7863C21.4927 25.0731 21.8776 25.2343 22.2789 25.2343H22.2779Z" fill="#2AD2C9"/>
<path d="M39.3681 29.8222H38.1037C37.7644 29.8222 37.4389 29.943 37.199 30.1582C36.959 30.3733 36.8242 30.665 36.8242 30.9692C36.8242 31.2734 36.959 31.5652 37.199 31.7803C37.4389 31.9954 37.7644 32.1162 38.1037 32.1162H39.3681C39.7074 32.1162 40.0328 31.9954 40.2728 31.7803C40.5128 31.5652 40.6476 31.2734 40.6476 30.9692C40.6476 30.665 40.5128 30.3733 40.2728 30.1582C40.0328 29.943 39.7074 29.8222 39.3681 29.8222Z" fill="#2AD2C9"/>
<path d="M34.0793 29.8222H22.7453C22.423 29.8222 22.114 29.943 21.8861 30.1582C21.6583 30.3733 21.5303 30.665 21.5303 30.9692C21.5303 31.2734 21.6583 31.5652 21.8861 31.7803C22.114 31.9954 22.423 32.1162 22.7453 32.1162H34.0793C34.4015 32.1162 34.7106 31.9954 34.9384 31.7803C35.1663 31.5652 35.2943 31.2734 35.2943 30.9692C35.2943 30.665 35.1663 30.3733 34.9384 30.1582C34.7106 29.943 34.4015 29.8222 34.0793 29.8222Z" fill="#2AD2C9"/>
<path d="M66.9629 9.17622H68.6221C68.9091 9.17622 69.1843 9.0151 69.3873 8.72829C69.5902 8.44149 69.7042 8.05249 69.7042 7.64689C69.7042 7.24128 69.5902 6.85229 69.3873 6.56549C69.1843 6.27868 68.9091 6.11755 68.6221 6.11755H66.9629C66.676 6.11755 66.4007 6.27868 66.1978 6.56549C65.9949 6.85229 65.8809 7.24128 65.8809 7.64689C65.8809 8.05249 65.9949 8.44149 66.1978 8.72829C66.4007 9.0151 66.676 9.17622 66.9629 9.17622Z" fill="#2AD2C9"/>
<path d="M51.8007 9.17622H62.3744C62.6961 9.17622 63.0046 9.0151 63.232 8.72829C63.4595 8.44149 63.5872 8.05249 63.5872 7.64689C63.5872 7.24128 63.4595 6.85229 63.232 6.56549C63.0046 6.27868 62.6961 6.11755 62.3744 6.11755H51.8007C51.479 6.11755 51.1706 6.27868 50.9431 6.56549C50.7157 6.85229 50.5879 7.24128 50.5879 7.64689C50.5879 8.05249 50.7157 8.44149 50.9431 8.72829C51.1706 9.0151 51.479 9.17622 51.8007 9.17622Z" fill="#2AD2C9"/>
<path d="M68.502 14.5287H58.6741C58.3549 14.5287 58.0489 14.6092 57.8232 14.7527C57.5975 14.8961 57.4707 15.0906 57.4707 15.2934C57.4707 15.4962 57.5975 15.6907 57.8232 15.8341C58.0489 15.9775 58.3549 16.058 58.6741 16.058H68.502C68.8211 16.058 69.1272 15.9775 69.3529 15.8341C69.5786 15.6907 69.7054 15.4962 69.7054 15.2934C69.7054 15.0906 69.5786 14.8961 69.3529 14.7527C69.1272 14.6092 68.8211 14.5287 68.502 14.5287Z" fill="#2AD2C9"/>
<path d="M51.8792 16.058H54.6492C54.9917 16.058 55.3202 15.9775 55.5623 15.8341C55.8045 15.6907 55.9406 15.4962 55.9406 15.2934C55.9406 15.0906 55.8045 14.8961 55.5623 14.7527C55.3202 14.6092 54.9917 14.5287 54.6492 14.5287H51.8792C51.5368 14.5287 51.2083 14.6092 50.9661 14.7527C50.7239 14.8961 50.5879 15.0906 50.5879 15.2934C50.5879 15.4962 50.7239 15.6907 50.9661 15.8341C51.2083 15.9775 51.5368 16.058 51.8792 16.058Z" fill="#2AD2C9"/>
<path d="M68.3956 22.1756H64.8956C64.5485 22.1756 64.2156 22.3367 63.9702 22.6235C63.7248 22.9103 63.5869 23.2993 63.5869 23.7049C63.5869 24.1105 63.7248 24.4995 63.9702 24.7863C64.2156 25.0731 64.5485 25.2343 64.8956 25.2343H68.3956C68.7427 25.2343 69.0755 25.0731 69.321 24.7863C69.5664 24.4995 69.7043 24.1105 69.7043 23.7049C69.7043 23.2993 69.5664 22.9103 69.321 22.6235C69.0755 22.3367 68.7427 22.1756 68.3956 22.1756Z" fill="#2AD2C9"/>
<path d="M51.7707 25.2343H60.8751C61.1888 25.2343 61.4896 25.0731 61.7115 24.7863C61.9333 24.4995 62.0579 24.1105 62.0579 23.7049C62.0579 23.2993 61.9333 22.9103 61.7115 22.6235C61.4896 22.3367 61.1888 22.1756 60.8751 22.1756H51.7707C51.457 22.1756 51.1562 22.3367 50.9343 22.6235C50.7125 22.9103 50.5879 23.2993 50.5879 23.7049C50.5879 24.1105 50.7125 24.4995 50.9343 24.7863C51.1562 25.0731 51.457 25.2343 51.7707 25.2343Z" fill="#2AD2C9"/>
<path d="M68.5144 29.8222H57.8951C57.5795 29.8222 57.2768 29.943 57.0536 30.1582C56.8305 30.3733 56.7051 30.665 56.7051 30.9692C56.7051 31.2734 56.8305 31.5652 57.0536 31.7803C57.2768 31.9954 57.5795 32.1162 57.8951 32.1162H68.5144C68.83 32.1162 69.1327 31.9954 69.3559 31.7803C69.579 31.5652 69.7044 31.2734 69.7044 30.9692C69.7044 30.665 69.579 30.3733 69.3559 30.1582C69.1327 29.943 68.83 29.8222 68.5144 29.8222Z" fill="#2AD2C9"/>
<path d="M51.9147 32.1162H53.8491C54.201 32.1162 54.5384 31.9954 54.7873 31.7803C55.0361 31.5652 55.1759 31.2734 55.1759 30.9692C55.1759 30.665 55.0361 30.3733 54.7873 30.1582C54.5384 29.943 54.201 29.8222 53.8491 29.8222H51.9147C51.5628 29.8222 51.2253 29.943 50.9765 30.1582C50.7277 30.3733 50.5879 30.665 50.5879 30.9692C50.5879 31.2734 50.7277 31.5652 50.9765 31.7803C51.2253 31.9954 51.5628 32.1162 51.9147 32.1162Z" fill="#2AD2C9"/>
<path d="M45.9745 43.586C43.1431 43.5892 40.4286 44.707 38.4265 46.6942C36.4244 48.6815 35.2982 51.3759 35.2949 54.1863V58.9842C35.2982 61.7946 36.4244 64.489 38.4265 66.4763C40.4286 68.4636 43.1431 69.5815 45.9745 69.5847H46.0261C48.8575 69.5815 51.572 68.4636 53.5741 66.4763C55.5762 64.489 56.7024 61.7946 56.7056 58.9842V54.1863C56.7023 51.3759 55.5761 48.6815 53.574 46.6943C51.5719 44.7071 48.8574 43.5892 46.0261 43.586H45.9745ZM54.2973 54.1863V58.9842C54.2948 61.1609 53.4226 63.2477 51.872 64.7868C50.3213 66.326 48.219 67.1918 46.0261 67.1942H45.9745C43.7816 67.1918 41.6792 66.326 40.1286 64.7868C38.5779 63.2477 37.7057 61.1609 37.7032 58.9842V54.1863C37.7057 52.0097 38.5779 49.9229 40.1286 48.3837C41.6792 46.8446 43.7816 45.9789 45.9745 45.9765H46.0261C48.2189 45.9789 50.3213 46.8446 51.872 48.3837C53.4226 49.9229 54.2948 52.0097 54.2973 54.1863Z" fill="#2AD2C9"/>
<path d="M73.8882 49.7032C71.36 49.706 68.9363 50.6953 67.1486 52.4539C65.3609 54.2125 64.3554 56.5969 64.3525 59.084V63.2626C64.3554 65.7497 65.361 68.134 67.1487 69.8926C68.9363 71.6512 71.3601 72.6404 73.8882 72.6432H73.9336C76.4617 72.6404 78.8854 71.6512 80.6731 69.8926C82.4608 68.134 83.4663 65.7497 83.4692 63.2626V59.084C83.4663 56.5969 82.4608 54.2126 80.6731 52.4539C78.8855 50.6953 76.4617 49.7061 73.9336 49.7032H73.8882ZM81.0514 59.084V63.2626C81.0492 65.1191 80.2986 66.8988 78.9642 68.2115C77.6299 69.5242 75.8207 70.2626 73.9336 70.2647H73.8882C72.0011 70.2626 70.1919 69.5242 68.8575 68.2115C67.5231 66.8988 66.7725 65.1191 66.7704 63.2626V59.084C66.7725 57.2275 67.5231 55.4477 68.8575 54.135C70.1919 52.8223 72.0011 52.0839 73.8882 52.0817H73.9336C75.8207 52.0839 77.6299 52.8223 78.9643 54.135C80.2986 55.4477 81.0492 57.2275 81.0514 59.084Z" fill="#2AD2C9"/>
<path d="M81.0536 73.0811C80.4137 73.0419 80.0841 73.4432 79.7668 73.831C79.0969 74.653 78.2485 75.3106 77.2863 75.7537C76.324 76.1968 75.2734 76.4137 74.2148 76.3877C73.1561 76.3617 72.1174 76.0935 71.1779 75.6037C70.2385 75.1139 69.4232 74.4154 68.7944 73.5616C68.6778 73.403 68.5248 73.275 68.3482 73.1884C68.1717 73.1019 67.9769 73.0593 67.7804 73.0644C65.8517 73.1073 63.9713 73.6773 62.3421 74.7127C61.2924 73.4426 59.9939 72.4017 58.5268 71.6545C57.0596 70.9074 55.4551 70.4697 53.8125 70.3687C53.1683 70.3291 52.8519 70.7147 52.4865 71.1617C51.7045 72.1214 50.714 72.8892 49.5905 73.4065C48.4671 73.9239 47.2405 74.1771 46.0045 74.1467C44.7685 74.1164 43.5557 73.8033 42.4589 73.2314C41.3621 72.6596 40.4103 71.8441 39.6761 70.8472C39.5601 70.688 39.4072 70.5596 39.2305 70.4729C39.0538 70.3863 38.8588 70.3441 38.6622 70.35C35.5156 70.4235 32.5238 71.733 30.3316 73.9961C30.1022 74.2317 29.8863 74.4768 29.6786 74.7274C28.1544 73.7571 26.4093 73.1906 24.6069 73.0811C23.9647 73.0419 23.6371 73.4432 23.3202 73.831C22.6504 74.653 21.8019 75.3106 20.8396 75.7537C19.8774 76.1968 18.8268 76.4137 17.7681 76.3877C16.7094 76.3617 15.6707 76.0935 14.7312 75.6037C13.7918 75.1139 12.9765 74.4154 12.3476 73.5616C12.2312 73.4028 12.0782 73.2747 11.9016 73.1881C11.7251 73.1015 11.5302 73.059 11.3337 73.0644C8.53699 73.1373 5.87935 74.3021 3.92741 76.3105C1.97547 78.3188 0.883661 81.0118 0.884766 83.8153V93.3448C0.884766 93.6696 1.01352 93.9811 1.24271 94.2108C1.4719 94.4404 1.78274 94.5695 2.10686 94.5695H26.8954V98.1822C26.8954 98.5069 27.0242 98.8184 27.2534 99.0481C27.4826 99.2778 27.7934 99.4068 28.1175 99.4068H63.9205C64.2446 99.4068 64.5554 99.2778 64.7846 99.0481C65.0138 98.8184 65.1425 98.5069 65.1425 98.1822V94.5695H89.8934C90.2176 94.5695 90.5284 94.4404 90.7576 94.2108C90.9868 93.9811 91.1155 93.6696 91.1155 93.3448V83.8153C91.1143 81.0796 90.0733 78.447 88.2042 76.453C86.3351 74.4591 83.7782 73.2533 81.0536 73.0811ZM3.32835 92.1202V83.8153C3.33975 81.757 4.1087 79.7753 5.48785 78.2499C6.867 76.7246 8.75934 75.7628 10.8023 75.549C11.6817 76.5779 12.7724 77.4046 13.9999 77.9723C15.2274 78.5401 16.5627 78.8357 17.9146 78.8388C19.2666 78.842 20.6033 78.5526 21.8334 77.9905C23.0635 77.4285 24.158 76.6069 25.0421 75.582C26.2033 75.7368 27.3181 76.1387 28.3116 76.7605C27.3787 78.5138 26.8923 80.4707 26.8954 82.4576V92.1202H3.32835ZM62.6984 96.9575H29.3396V82.458C29.3386 80.0433 30.2401 77.7159 31.8665 75.9342C33.4928 74.1525 35.7261 73.0458 38.1263 72.8321C39.1147 74.0089 40.3473 74.9556 41.7383 75.6061C43.1292 76.2566 44.6449 76.5954 46.1799 76.5987C47.7148 76.6021 49.232 76.27 50.6258 75.6255C52.0195 74.9811 53.2563 74.0399 54.2498 72.8674C56.5821 73.1606 58.7275 74.2967 60.283 76.0626C61.8386 77.8285 62.6975 80.1027 62.6984 82.4582V96.9575ZM88.6713 92.1202H65.1425V82.458C65.1437 80.4653 64.6519 78.5035 63.7113 76.7479C64.7822 76.0788 65.9937 75.6682 67.2501 75.5486C68.1294 76.5777 69.2201 77.4045 70.4476 77.9724C71.6751 78.5403 73.0105 78.836 74.3625 78.8392C75.7146 78.8424 77.0513 78.5531 78.2815 77.991C79.5117 77.429 80.6063 76.6074 81.4905 75.5824C83.4787 75.8523 85.3019 76.8351 86.6222 78.3489C87.9426 79.8627 88.6706 81.8048 88.6713 83.8153V92.1202Z" fill="#2AD2C9"/>
<path d="M18.0669 72.6432H18.1123C20.6404 72.6404 23.0642 71.6512 24.8518 69.8926C26.6395 68.134 27.6451 65.7497 27.6479 63.2626V59.084C27.6451 56.5969 26.6396 54.2125 24.8519 52.4539C23.0642 50.6953 20.6404 49.706 18.1123 49.7032H18.0669C15.5388 49.7061 13.115 50.6953 11.3274 52.4539C9.5397 54.2126 8.53413 56.5969 8.53125 59.084V63.2626C8.53413 65.7497 9.5397 68.134 11.3274 69.8926C13.115 71.6512 15.5388 72.6404 18.0669 72.6432ZM10.9491 59.084C10.9513 57.2275 11.7018 55.4477 13.0362 54.135C14.3706 52.8223 16.1798 52.0839 18.0669 52.0817H18.1123C19.9994 52.0839 21.8086 52.8223 23.143 54.135C24.4773 55.4477 25.2279 57.2275 25.2301 59.084V63.2626C25.2279 65.1191 24.4773 66.8988 23.143 68.2115C21.8086 69.5242 19.9994 70.2626 18.1123 70.2647H18.0669C16.1798 70.2626 14.3706 69.5242 13.0362 68.2115C11.7018 66.8988 10.9513 65.1191 10.9491 63.2626V59.084Z" fill="#2AD2C9"/>
</svg>
