<svg width="107" height="91" viewBox="0 0 107 91" fill="none" xmlns="http://www.w3.org/2000/svg">
<path d="M61.7356 31.8987C61.7356 32.2447 61.8731 32.5766 62.1178 32.8213C62.3625 33.066 62.6944 33.2035 63.0404 33.2035C63.3865 33.2035 63.7184 33.066 63.9631 32.8213C64.2078 32.5766 64.3453 32.2447 64.3453 31.8987V27.2837C64.3357 25.6789 63.6914 24.143 62.5532 23.0116C61.415 21.8802 59.8754 21.2452 58.2705 21.2452C56.6657 21.2452 55.126 21.8802 53.9878 23.0116C52.8496 24.143 52.2054 25.6789 52.1958 27.2837V47.2989C52.1943 48.0144 51.9091 48.7 51.4028 49.2056C50.8965 49.7111 50.2104 49.9952 49.495 49.9956H39.7522C39.6548 49.9956 39.5617 49.9934 39.4695 49.9908C40.2618 49.9559 41.0101 49.617 41.5589 49.0445C42.1077 48.472 42.4148 47.7101 42.4163 46.9171V41.1469C42.424 40.1877 42.6285 39.2403 43.0171 38.3633C43.4057 37.4863 43.9702 36.6985 44.6756 36.0485C46.5678 34.2861 47.8846 31.9942 48.4542 29.472C49.0238 26.9497 48.8196 24.3143 47.8683 21.9099C46.917 19.5055 45.2629 17.4438 43.1218 15.994C40.9808 14.5441 38.4523 13.7736 35.8665 13.7829C33.2808 13.7922 30.7579 14.5809 28.6274 16.0461C26.4968 17.5113 24.8575 19.5849 23.9236 21.9961C22.9897 24.4073 22.8045 27.0441 23.3922 29.5622C23.9799 32.0803 25.3132 34.3627 27.218 36.1113C27.912 36.7551 28.465 37.5357 28.8422 38.4039C29.2194 39.2721 29.4125 40.209 29.4095 41.1556V46.9186C29.4106 47.7355 29.7357 48.5187 30.3135 49.0962C30.8913 49.6738 31.6746 49.9985 32.4915 49.9993H34.3496C35.3045 51.7293 37.1156 52.6068 39.7527 52.6068H49.4954C50.9028 52.6056 52.2522 52.0463 53.2477 51.0516C54.2433 50.0568 54.8036 48.7078 54.8059 47.3005V27.2837C54.8131 26.3694 55.1814 25.4951 55.8304 24.8512C56.4795 24.2073 57.3567 23.8459 58.271 23.8459C59.1852 23.8459 60.0624 24.2073 60.7115 24.8512C61.3605 25.4951 61.7288 26.3694 61.736 27.2837L61.7356 31.8987ZM28.9813 34.1884C27.4618 32.7935 26.3991 30.9722 25.9324 28.963C25.4656 26.9538 25.6167 24.8505 26.3658 22.9286C27.1148 21.0068 28.4269 19.356 30.1302 18.1926C31.8334 17.0291 33.8484 16.4073 35.911 16.4086H36.0074C38.6586 16.4379 41.1957 17.4918 43.0873 19.3496C44.979 21.2074 46.0785 23.7251 46.1557 26.3753C46.193 27.8262 45.9217 29.2685 45.3598 30.6067C44.7979 31.9448 43.9582 33.1484 42.8962 34.1378C41.2742 35.6437 40.2169 37.6597 39.9003 39.8503H37.6386V33.3479C38.3247 33.0482 38.8866 32.5214 39.23 31.8561C39.5734 31.1908 39.6773 30.4276 39.5242 29.6947C39.3711 28.9619 38.9703 28.3041 38.3893 27.8319C37.8083 27.3597 37.0825 27.102 36.3338 27.102C35.5851 27.102 34.8593 27.3597 34.2783 27.8319C33.6973 28.3041 33.2965 28.9619 33.1434 29.6947C32.9903 30.4276 33.0942 31.1908 33.4376 31.8561C33.781 32.5214 34.3429 33.0482 35.029 33.3479V39.8503H31.9256C31.6319 37.6782 30.5908 35.6763 28.9813 34.1884ZM35.684 30.3664C35.6837 30.2378 35.7215 30.112 35.7926 30.005C35.8638 29.8979 35.9651 29.8144 36.0838 29.765C36.2025 29.7155 36.3331 29.7024 36.4592 29.7273C36.5854 29.7522 36.7013 29.8139 36.7923 29.9047C36.8833 29.9954 36.9454 30.1112 36.9706 30.2372C36.9958 30.3633 36.983 30.494 36.9339 30.6128C36.8848 30.7316 36.8015 30.8332 36.6947 30.9046C36.5878 30.9761 36.4621 31.0142 36.3336 31.0142C36.1616 31.0143 35.9966 30.9461 35.8748 30.8246C35.753 30.7032 35.6844 30.5384 35.684 30.3664ZM32.0179 46.9179V46.257C32.3187 46.2028 32.5909 46.0446 32.787 45.8101C32.983 45.5756 33.0904 45.2796 33.0904 44.9739C33.0904 44.6683 32.983 44.3723 32.787 44.1378C32.5909 43.9032 32.3187 43.7451 32.0179 43.6909V42.4604H39.8053V43.6693H34.9842C34.6381 43.6693 34.3062 43.8068 34.0615 44.0515C33.8168 44.2962 33.6793 44.6281 33.6793 44.9742C33.6793 45.3202 33.8168 45.6521 34.0615 45.8968C34.3062 46.1415 34.6381 46.279 34.9842 46.279H39.8053V46.9179C39.805 47.043 39.755 47.1628 39.6665 47.2511C39.578 47.3394 39.458 47.389 39.333 47.389H32.4902C32.3652 47.389 32.2452 47.3394 32.1567 47.2511C32.0681 47.1628 32.0182 47.043 32.0179 46.9179Z" fill="#F85C71"/>
<path d="M63.0412 34.7804C62.6951 34.7804 62.3632 34.9179 62.1185 35.1626C61.8738 35.4073 61.7363 35.7392 61.7363 36.0852V38.9637C61.7363 39.3098 61.8738 39.6416 62.1185 39.8863C62.3632 40.131 62.6951 40.2685 63.0412 40.2685C63.3872 40.2685 63.7191 40.131 63.9638 39.8863C64.2085 39.6416 64.346 39.3098 64.346 38.9637V36.0852C64.346 35.7392 64.2085 35.4073 63.9638 35.1626C63.7191 34.9179 63.3872 34.7804 63.0412 34.7804Z" fill="#F85C71"/>
<path d="M81.1135 37.1244C81.1135 37.4704 81.251 37.8023 81.4957 38.047C81.7404 38.2917 82.0723 38.4292 82.4183 38.4292C82.7644 38.4292 83.0963 38.2917 83.341 38.047C83.5857 37.8023 83.7232 37.4704 83.7232 37.1244V32.8402C83.7232 31.233 83.0848 29.6917 81.9484 28.5553C80.8119 27.4189 79.2707 26.7805 77.6635 26.7805C76.0564 26.7805 74.5151 27.4189 73.3787 28.5553C72.2423 29.6917 71.6039 31.233 71.6039 32.8402V48.4198C71.6039 49.3823 71.2216 50.3053 70.541 50.9859C69.8604 51.6665 68.9374 52.0488 67.9749 52.0488C67.0125 52.0488 66.0894 51.6665 65.4089 50.9859C64.7283 50.3053 64.346 49.3823 64.346 48.4198V43.2823C64.346 42.9362 64.2085 42.6043 63.9638 42.3596C63.7191 42.1149 63.3872 41.9775 63.0412 41.9775C62.6951 41.9775 62.3632 42.1149 62.1185 42.3596C61.8738 42.6043 61.7363 42.9362 61.7363 43.2823V48.4214C61.7363 50.076 62.3936 51.6628 63.5636 52.8327C64.7335 54.0027 66.3204 54.66 67.9749 54.66C69.6295 54.66 71.2163 54.0027 72.3863 52.8327C73.5563 51.6628 74.2136 50.076 74.2136 48.4214V32.8417C74.2136 31.9267 74.577 31.0492 75.224 30.4022C75.871 29.7552 76.7485 29.3917 77.6635 29.3917C78.5785 29.3917 79.456 29.7552 80.103 30.4022C80.75 31.0492 81.1135 31.9267 81.1135 32.8417V37.1244Z" fill="#F85C71"/>
<path d="M83.7229 41.1323C83.7229 40.7863 83.5855 40.4544 83.3408 40.2097C83.0961 39.965 82.7642 39.8275 82.4181 39.8275C82.072 39.8275 81.7402 39.965 81.4955 40.2097C81.2508 40.4544 81.1133 40.7863 81.1133 41.1323V50.715C81.1133 51.0611 81.2508 51.393 81.4955 51.6377C81.7402 51.8824 82.072 52.0199 82.4181 52.0199C82.7642 52.0199 83.0961 51.8824 83.3408 51.6377C83.5855 51.393 83.7229 51.0611 83.7229 50.715V41.1323Z" fill="#F85C71"/>
<path d="M101.2 63.9713V7.22552C101.198 5.51251 100.516 3.87044 99.3044 2.65957C98.0927 1.4487 96.4502 0.767924 94.7372 0.766602H13.2161C11.5031 0.767924 9.86054 1.4487 8.64885 2.65957C7.43716 3.87044 6.75528 5.51251 6.7528 7.22552V63.8713C4.91733 63.9376 3.1813 64.722 1.91852 66.0557C0.655741 67.3894 -0.032785 69.1657 0.00120092 71.002C0.0351868 72.8384 0.788966 74.5879 2.10023 75.874C3.4115 77.16 5.17537 77.8797 7.01203 77.878L75.0072 78.0937V83.2396C75.0093 85.1864 75.7835 87.0529 77.1602 88.4296C78.5368 89.8062 80.4033 90.5805 82.3502 90.5825H82.3602C84.3071 90.5805 86.1737 89.8063 87.5503 88.4297C88.927 87.053 89.7013 85.1864 89.7033 83.2396V78.0735L100.003 77.8778C101.755 77.8757 103.443 77.2168 104.734 76.0312C106.024 74.8456 106.824 73.2193 106.974 71.4732C107.125 69.7272 106.615 67.9882 105.546 66.5994C104.477 65.2106 102.927 64.2728 101.2 63.9711V63.9713ZM13.2161 3.37626H94.7372C95.7583 3.37684 96.7375 3.78243 97.4599 4.50406C98.1823 5.22568 98.589 6.20441 98.5908 7.22552V63.8646H83.7231V58.4976H90.4108C91.0028 58.497 91.5704 58.2617 91.9891 57.8433C92.4079 57.4248 92.6436 56.8574 92.6446 56.2654V11.9292C92.6439 11.3371 92.4083 10.7694 91.9895 10.3508C91.5707 9.93213 91.0029 9.69673 90.4108 9.69621H17.5425C16.9503 9.69673 16.3825 9.93213 15.9637 10.3508C15.545 10.7694 15.3093 11.3371 15.3086 11.9292V56.2654C15.3093 56.8576 15.5449 57.4253 15.9637 57.844C16.3825 58.2626 16.9503 58.4981 17.5425 58.4986H81.1134V63.8656H68.3678C67.3384 63.8666 66.3513 64.2758 65.6232 65.0035C64.895 65.7312 64.4853 66.7181 64.4838 67.7475C64.4831 68.0851 64.3485 68.4086 64.1096 68.6471C63.8707 68.8856 63.547 69.0196 63.2094 69.0197H42.5761C42.2385 69.0196 41.9148 68.8856 41.6759 68.6471C41.4371 68.4086 41.3025 68.0851 41.3019 67.7475C41.3004 66.7181 40.8907 65.7312 40.1625 65.0035C39.4344 64.2758 38.4473 63.8666 37.4179 63.8656H9.36247V7.22552C9.36419 6.20441 9.77089 5.22568 10.4933 4.50406C11.2158 3.78243 12.195 3.37684 13.2161 3.37626ZM82.4182 53.2598C82.0722 53.2598 81.7403 53.3972 81.4956 53.6419C81.2509 53.8866 81.1134 54.2185 81.1134 54.5646V55.8879H17.9182V12.3065H90.035V55.8879H83.7231V54.5646C83.7231 54.2185 83.5856 53.8866 83.3409 53.6419C83.0962 53.3972 82.7643 53.2598 82.4182 53.2598ZM7.01616 75.2683C5.84999 75.2683 4.73158 74.8051 3.90697 73.9805C3.08236 73.1559 2.6191 72.0375 2.6191 70.8713C2.6191 69.7051 3.08236 68.5867 3.90697 67.7621C4.73158 66.9375 5.84999 66.4742 7.01616 66.4742H37.4187C37.7563 66.4743 38.0801 66.6083 38.319 66.8468C38.5579 67.0853 38.6924 67.4089 38.6931 67.7464C38.6946 68.7759 39.1043 69.7627 39.8324 70.4904C40.5605 71.2182 41.5475 71.6274 42.577 71.6283H63.2103C64.2397 71.6274 65.2268 71.2183 65.955 70.4905C66.6831 69.7628 67.0929 68.7759 67.0943 67.7464C67.095 67.4089 67.2296 67.0853 67.4685 66.8468C67.7074 66.6083 68.0311 66.4743 68.3687 66.4742H81.1143V67.7501C79.4067 68.0451 77.8581 68.9332 76.7411 70.2579C75.6241 71.5827 75.0104 73.2591 75.0081 74.9919V75.4849L7.01616 75.2683ZM87.0937 77.808H83.7229V70.4548C84.6967 70.7497 85.5501 71.3498 86.157 72.1666C86.7639 72.9833 87.0923 73.9735 87.0937 74.9911V77.808ZM77.6169 77.808V74.9911C77.6184 73.9512 77.9614 72.9406 78.5931 72.1145C79.2248 71.2885 80.1102 70.6928 81.1134 70.4189V77.808H77.6169ZM82.3602 87.9728H82.3502C81.0953 87.9714 79.8922 87.4723 79.0048 86.5849C78.1175 85.6976 77.6183 84.4945 77.6169 83.2396V80.4176H81.9979C82.2703 80.5119 82.5664 80.5119 82.8388 80.4176H87.0937V83.2396C87.0922 84.4945 86.5931 85.6976 85.7057 86.585C84.8183 87.4723 83.6151 87.9715 82.3602 87.9728ZM103.104 73.9785C102.696 74.3888 102.211 74.714 101.676 74.9354C101.142 75.1568 100.568 75.27 99.9898 75.2683H99.965L89.7033 75.4641V74.9917C89.701 73.281 89.1026 71.6245 88.0111 70.3071C86.9197 68.9898 85.4033 68.0938 83.7229 67.7734V66.4749H99.9898C100.86 66.4738 101.71 66.7308 102.434 67.2134C103.158 67.696 103.722 68.3825 104.056 69.1859C104.389 69.9894 104.477 70.8737 104.307 71.7269C104.138 72.5802 103.719 73.364 103.104 73.9792V73.9785Z" fill="#F85C71"/>
</svg>
