<svg xmlns="http://www.w3.org/2000/svg" width="39.656" height="37.484" viewBox="0 0 39.656 37.484"><defs><style>.sections{}</style></defs><g transform="matrix(1, 0.017, -0.017, 1, 0.817, -9.957)"><path class="sections" d="M21.846,42.793a8.783,8.783,0,0,1-2.335,1.733c-.7-.209-1.835-1.265-3.5-2.81q-.424-.393-.9-.835C8.928,35.179,2.3,26.835,2.22,20.518A7.011,7.011,0,0,1,4.43,15.131,10.329,10.329,0,0,1,18.751,15a1.11,1.11,0,0,0,1.524,0,10.33,10.33,0,0,1,14.321.135c3.116,3.014,2.942,7.569-.514,13.538A1.11,1.11,0,0,0,36,29.781c5.024-8.676,2.848-13.623.137-16.246a12.551,12.551,0,0,0-16.626-.818,12.55,12.55,0,0,0-16.625.818A9.243,9.243,0,0,0,0,20.545c.106,8.837,10.44,19.048,13.605,21.967q.476.439.9.83c2.319,2.154,3.484,3.235,4.865,3.416a1.113,1.113,0,0,0,.289,0c1.111-.146,2.111-.9,3.681-2.323a1.11,1.11,0,1,0-1.492-1.643Z" transform="translate(0)"/><path class="sections" d="M198.006,171.142h-3.564v-3.563a1.11,1.11,0,0,0-1.11-1.11H188.87a1.11,1.11,0,0,0-1.11,1.11v3.563H184.2a1.11,1.11,0,0,0-1.11,1.11v4.463a1.11,1.11,0,0,0,1.11,1.11h3.564v3.563a1.11,1.11,0,0,0,1.11,1.11h4.462a1.11,1.11,0,0,0,1.11-1.11v-3.563h3.564a1.11,1.11,0,0,0,1.11-1.11v-4.463A1.11,1.11,0,0,0,198.006,171.142ZM196.9,175.6h-3.564a1.11,1.11,0,0,0-1.11,1.11v3.564H189.98v-3.564a1.11,1.11,0,0,0-1.11-1.11h-3.564v-2.244h3.564a1.11,1.11,0,0,0,1.11-1.11v-3.563h2.243v3.563a1.11,1.11,0,0,0,1.11,1.11H196.9Z" transform="translate(-162.771 -139.143)"/></g></svg>