<svg xmlns="http://www.w3.org/2000/svg" width="37.385" height="36.193" viewBox="0 0 37.385 36.193"><defs><style>.home{fill:#fff;}</style></defs><g transform="translate(0 -4.89)"><path class="home" d="M36.917,22.549A1.783,1.783,0,0,0,36.771,20L20.063,5.379a2.083,2.083,0,0,0-2.717.031L.581,20.778A1.772,1.772,0,0,0,.5,23.325l.42.438a1.833,1.833,0,0,0,2.516.193L4.69,22.833V39.26a1.823,1.823,0,0,0,1.824,1.824h6.535a1.823,1.823,0,0,0,1.824-1.824V27.768h8.335V39.26a1.723,1.723,0,0,0,1.713,1.823h6.925a1.823,1.823,0,0,0,1.824-1.824V23.065l.773.678c.426.374,1.321.074,2-.672Z" transform="translate(0 0)"/></g></svg>