<svg xmlns="http://www.w3.org/2000/svg" width="43.485" height="43.488" viewBox="0 0 43.485 43.488"><defs><style>.sections{}</style></defs><g transform="translate(-0.023 0.001)"><g transform="translate(0.023 -0.001)"><path class="sections" d="M32.577,42.189A23.14,23.14,0,0,1,34.25,28.454l-1.656-.736a25.013,25.013,0,0,0-1.942,13.958h-17.6l2.318-6.962a.906.906,0,0,0-1.079-1.165,12.64,12.64,0,0,1-5.837.019c-1.776-.593-1.622-5.067-1.268-7.142a.906.906,0,0,0-.893-1.058H3.009A1.178,1.178,0,0,1,1.831,24.2a1.164,1.164,0,0,1,.2-.659l4.558-6.717a.912.912,0,0,0,.138-.692A12.128,12.128,0,0,1,9.017,6.868c2.734-3.355,7.61-5.056,14.492-5.056V0c-7.454,0-12.8,1.925-15.9,5.722A13.781,13.781,0,0,0,4.889,16.1L.535,22.518A2.99,2.99,0,0,0,3.009,27.18h2.25c-.24,2.24-.393,7.1,2.628,8.11a12.451,12.451,0,0,0,5.287.3l-2.236,6.7a.906.906,0,0,0,.86,1.192H31.729a.906.906,0,0,0,.891-1.074Z" transform="translate(-0.023)"/></g><g transform="translate(20.857 29.897)"><rect class="sections" width="1.812" height="1.812"/></g><g transform="translate(22.669 33.521)"><rect class="sections" width="1.812" height="1.812"/></g><g transform="translate(24.481 37.145)"><rect class="sections" width="1.812" height="1.812"/></g><g transform="translate(19.951 7.247)"><path class="sections" d="M242.8,85.333a8.154,8.154,0,1,0,8.154,8.154A8.154,8.154,0,0,0,242.8,85.333Zm0,14.5a6.342,6.342,0,1,1,6.342-6.342A6.342,6.342,0,0,1,242.8,99.829Z" transform="translate(-234.643 -85.333)"/></g><g transform="translate(22.669 15.401)"><path class="sections" d="M268.456,181.333h-1.812a5.441,5.441,0,0,0,5.436,5.436v-1.812A3.624,3.624,0,0,1,268.456,181.333Z" transform="translate(-266.644 -181.333)"/></g><g transform="translate(28.105 9.965)"><path class="sections" d="M330.643,117.333v1.812a3.624,3.624,0,0,1,3.624,3.624h1.812A5.442,5.442,0,0,0,330.643,117.333Z" transform="translate(-330.643 -117.333)"/></g><g transform="translate(12.703 -0.001)"><path class="sections" d="M179.358,12.7l-3.338-.557a11.7,11.7,0,0,0-1.009-2.424l1.97-2.757a.906.906,0,0,0-.1-1.167L174.32,3.229a.906.906,0,0,0-1.167-.1L170.4,5.1a11.7,11.7,0,0,0-2.423-1.008L167.417.756A.906.906,0,0,0,166.524,0H162.9a.906.906,0,0,0-.893.757l-.556,3.338A11.7,11.7,0,0,0,159.027,5.1l-2.757-1.97a.906.906,0,0,0-1.167.1L152.54,5.792a.906.906,0,0,0-.1,1.167l1.97,2.757a11.7,11.7,0,0,0-1.008,2.423l-3.338.557a.906.906,0,0,0-.757.893v3.624a.906.906,0,0,0,.757.892l3.338.557a11.7,11.7,0,0,0,1.009,2.424l-1.97,2.757a.906.906,0,0,0,.1,1.167l2.563,2.563a.906.906,0,0,0,1.167.1l2.757-1.97a11.7,11.7,0,0,0,2.423,1.008l.556,3.338a.906.906,0,0,0,.893.757h3.624a.906.906,0,0,0,.892-.757l.557-3.338A11.7,11.7,0,0,0,170.4,25.7l2.757,1.97a.906.906,0,0,0,1.167-.1l2.563-2.563a.906.906,0,0,0,.1-1.167l-1.97-2.757a11.7,11.7,0,0,0,1.008-2.423l3.338-.557a.906.906,0,0,0,.757-.893V13.589A.906.906,0,0,0,179.358,12.7ZM178.3,16.446l-3.163.53a.906.906,0,0,0-.733.689,9.913,9.913,0,0,1-1.246,2.99.906.906,0,0,0,.031,1.007l1.865,2.612L173.58,25.75l-2.612-1.866a.906.906,0,0,0-1.007-.031,9.912,9.912,0,0,1-2.99,1.246.906.906,0,0,0-.689.733l-.526,3.159h-2.089l-.53-3.163a.906.906,0,0,0-.689-.733,9.913,9.913,0,0,1-2.99-1.246.906.906,0,0,0-1.007.031l-2.612,1.866-1.477-1.477,1.866-2.612a.906.906,0,0,0,.031-1.007,9.912,9.912,0,0,1-1.246-2.99.906.906,0,0,0-.733-.689l-3.159-.526V14.357l3.159-.53a.906.906,0,0,0,.733-.689,9.912,9.912,0,0,1,1.246-2.99.906.906,0,0,0-.031-1.007L154.364,6.53l1.477-1.477,2.616,1.865a.906.906,0,0,0,1.007.031,9.913,9.913,0,0,1,2.99-1.246.906.906,0,0,0,.689-.733l.526-3.159h2.089l.53,3.159a.906.906,0,0,0,.689.733,9.913,9.913,0,0,1,2.99,1.246.906.906,0,0,0,1.007-.031l2.612-1.862,1.477,1.477L173.2,9.145a.906.906,0,0,0-.031,1.007,9.913,9.913,0,0,1,1.246,2.99.906.906,0,0,0,.733.689l3.159.526v2.089Z" transform="translate(-149.31 0.001)"/></g></g></svg>