<svg xmlns="http://www.w3.org/2000/svg" xmlns:xlink="http://www.w3.org/1999/xlink" width="25" height="32.821" viewBox="0 0 25 32.821"><defs></defs><g transform="translate(-61)" ><g transform="translate(67.731)" ><g transform="translate(0)" ><path d="M175.615,1.923h-1.8l-.227-.64a1.924,1.924,0,0,0-3.628,0l-.227.64h-1.8A1.923,1.923,0,0,0,166,3.846v.962a.962.962,0,0,0,.962.962h9.615a.962.962,0,0,0,.962-.962V3.846A1.923,1.923,0,0,0,175.615,1.923Z" transform="translate(-166)" /></g></g><g transform="translate(61 3.846)" ><g transform="translate(0)" ><path d="M83.115,60H81.192v.962a2.888,2.888,0,0,1-2.885,2.885H68.692a2.888,2.888,0,0,1-2.885-2.885V60H63.885A2.888,2.888,0,0,0,61,62.885V85.962a3,3,0,0,0,2.885,3.013H83.115A3,3,0,0,0,86,85.962V62.885A2.888,2.888,0,0,0,83.115,60ZM72.257,80.872l-3.846,3.846a.961.961,0,0,1-1.36,0L65.128,82.8a.961.961,0,0,1,1.36-1.36l1.243,1.243L70.9,79.512a.961.961,0,1,1,1.36,1.36Zm0-6.731-3.846,3.846a.961.961,0,0,1-1.36,0l-1.923-1.923a.961.961,0,0,1,1.36-1.36l1.243,1.243L70.9,72.782a.961.961,0,1,1,1.36,1.36Zm0-6.731-3.846,3.846a.961.961,0,0,1-1.36,0l-1.923-1.923a.961.961,0,0,1,1.36-1.36l1.243,1.243L70.9,66.051a.961.961,0,1,1,1.36,1.36Zm8.936,15.666H75.423a.962.962,0,0,1,0-1.923h5.769a.962.962,0,1,1,0,1.923Zm0-6.731H75.423a.962.962,0,0,1,0-1.923h5.769a.962.962,0,1,1,0,1.923Zm0-6.731H75.423a.962.962,0,0,1,0-1.923h5.769a.962.962,0,0,1,0,1.923Z" transform="translate(-61 -60)" /></g></g></g></svg>