<svg width="53" height="53" viewBox="0 0 53 53" xmlns="http://www.w3.org/2000/svg">
<path d="M52.1719 51.3438H45.5212C50.5129 47.137 47.5721 38.9219 40.9922 38.9219H40.405C40.8128 37.48 40.5175 36.9032 39.4021 31.88C38.3772 27.2736 34.9261 23.4405 30.1918 22.0608C31.3191 21.3014 32.2001 20.2044 32.6914 18.9164C32.8633 18.8065 32.8185 18.8366 33.8758 17.4064C37.5513 12.4343 35.0298 5.82855 29.8125 3.89291V3.3125C29.8125 1.48597 28.3265 0 26.5 0C24.6735 0 23.1875 1.48597 23.1875 3.3125V3.89291C17.9686 5.82907 15.4499 12.4361 19.1242 17.4064C20.1855 18.842 20.1366 18.8065 20.3086 18.9164C20.7997 20.2037 21.6799 21.3001 22.8061 22.0595C21.0456 22.5726 19.3966 23.4497 17.9775 24.6479C17.628 24.9429 17.5839 25.4654 17.879 25.8148C18.174 26.1642 18.6965 26.2084 19.0459 25.9133C22.1005 23.3342 26.3268 22.4783 30.2312 23.8106C29.0319 28.3187 25.3697 31.7038 20.7227 32.5237L20.0962 32.6342L20.6834 29.9921C20.7825 29.5456 20.5011 29.1033 20.0546 29.004C19.6081 28.9048 19.1658 29.1864 19.0665 29.6328C18.8741 30.4988 17.8025 35.3211 17.5544 36.4374H16.5625C16.1052 36.4374 15.7344 36.8082 15.7344 37.2655C15.7344 37.7229 16.1052 38.0936 16.5625 38.0936H19.6741C22.1608 38.0936 24.4988 37.1253 26.2575 35.3667C26.5808 35.0434 26.5809 34.519 26.2575 34.1957C25.9342 33.8723 25.4099 33.8723 25.0864 34.1957C23.6406 35.6414 21.7185 36.4375 19.6741 36.4375H19.2511L19.7073 34.3848C21.7682 34.0211 25.0119 33.5851 28.2006 30.4567C29.902 28.7873 31.1235 26.7313 31.7708 24.4628C34.0911 25.6494 35.8743 27.5408 36.9496 29.8125H33.9733L33.9334 29.6329C33.8342 29.1864 33.3919 28.9049 32.9453 29.0041C32.4988 29.1033 32.2173 29.5457 32.3165 29.9922L33.7489 36.4375H33.3259C31.2815 36.4375 29.3594 35.6414 27.9137 34.1957C27.5903 33.8722 27.066 33.8723 26.7426 34.1957C26.4192 34.519 26.4193 35.0434 26.7426 35.3667C29.775 38.3992 32.8404 38.0938 36.4375 38.0938C36.8948 38.0938 37.2656 37.723 37.2656 37.2656C37.2656 36.8083 36.8948 36.4375 36.4375 36.4375H35.4455L34.3413 31.4688H37.5828C37.7489 32.0285 37.6645 31.6954 38.8525 37.046C39.2554 38.8574 37.8743 40.5781 36.0191 40.5781H29.118C30.0373 38.6482 28.6136 36.4375 26.4998 36.4375C26.0425 36.4375 25.6717 36.8083 25.6717 37.2656C25.6717 37.723 26.0425 38.0938 26.4998 38.0938C26.8314 38.0938 27.1431 38.223 27.3779 38.4577C28.1539 39.2336 27.6103 40.5781 26.5 40.5781H16.9807C15.3802 40.5781 14.0781 39.276 14.0781 37.6755C14.0781 37.2416 14.0546 37.4636 15.2145 32.2401C15.3313 31.7168 15.4847 31.1996 15.6705 30.7031C15.8307 30.2748 15.6135 29.7976 15.1851 29.6374C14.7569 29.477 14.2797 29.6943 14.1193 30.1227C13.9068 30.6906 13.7315 31.2818 13.5979 31.8803C12.4774 36.9269 12.1895 37.4921 12.5965 38.9219H12.0078C5.45993 38.9219 2.47475 47.1217 7.47331 51.3438H0.828125C0.370793 51.3438 0 51.7145 0 52.1719C0 52.6292 0.370793 53 0.828125 53H52.1719C52.6292 53 53 52.6292 53 52.1719C53 51.7145 52.6292 51.3438 52.1719 51.3438ZM24.8438 3.3125C24.8438 2.39929 25.5868 1.65625 26.5 1.65625C27.4132 1.65625 28.1562 2.39929 28.1562 3.3125C28.1562 3.64841 28.2516 3.2596 26.1991 3.31674C24.6929 3.35888 24.8438 3.5982 24.8438 3.3125ZM19.7773 9.0895C22.4567 3.58651 30.5381 3.57574 33.2228 9.0895C34.2406 11.1799 34.1897 13.5082 33.1251 15.5017C33.125 12.1707 33.3104 9.9375 32.0567 9.9375C31.6244 9.9375 31.1903 10.0146 30.9672 9.56712C30.5706 8.77398 29.7736 8.28125 28.8871 8.28125C23.7383 8.28125 23.6396 8.16852 22.8885 8.62927C21.9218 9.22914 22.1402 9.9375 21.4339 9.9375H20.9433C19.6827 9.9375 19.875 12.1879 19.875 15.5017C18.8103 13.5082 18.7595 11.1799 19.7773 9.0895ZM21.5312 16.5625C21.5312 12.014 21.5081 12.1375 21.6008 11.5878C22.4195 11.5302 23.1426 11.0508 23.5147 10.3066C23.5698 10.1961 23.6552 10.1027 23.7582 10.0388C23.9883 9.89775 23.7081 9.9375 28.8871 9.9375C29.5913 9.9375 29.3737 10.645 30.3454 11.248C30.6663 11.4448 31.0276 11.5609 31.3991 11.5877C31.4968 12.1666 31.4688 12.0994 31.4688 16.5625C31.4688 19.3022 29.2397 21.5312 26.5 21.5312C23.7603 21.5312 21.5312 19.3022 21.5312 16.5625ZM18.8457 48.2135L18.0143 48.5461C16.8853 48.9978 16.3244 50.2176 16.6572 51.3438H14.0781V47.0216L18.8457 48.2135ZM18.872 51.3438C18.1587 51.3438 17.9623 50.3506 18.6294 50.0839C22.1116 48.6911 21.8871 48.7891 21.9905 48.7202C23.7451 47.5505 24.0778 47.2031 24.9954 47.2031C26.0337 47.2031 26.9517 47.8649 27.28 48.8498L27.3705 49.1213C27.5073 49.5318 27.9366 49.7678 28.357 49.6629L38.9219 47.0216V51.3438H18.872ZM40.5781 51.3438V46.6075L41.6071 46.3503C42.0507 46.2393 42.3205 45.7897 42.2096 45.346C42.0988 44.9022 41.6492 44.6325 41.2053 44.7434L28.6716 47.8769C28.0074 46.4657 26.5848 45.5469 24.9955 45.5469C23.5157 45.5469 22.7408 46.2297 21.3767 47.1389L11.7946 44.7434C11.3507 44.6327 10.9012 44.9023 10.7903 45.346C10.6794 45.7897 10.9492 46.2393 11.3928 46.3503L12.4218 46.6075V51.3438H12.0077C9.03112 51.3438 6.6249 48.9353 6.6249 45.9609C6.6249 42.9928 9.03961 40.5781 12.0077 40.5781H13.4679C14.3047 41.5892 15.5686 42.2344 16.9806 42.2344H36.0192C37.392 42.2344 38.6612 41.6307 39.5338 40.5781C41.2248 40.5781 43.0379 40.3952 44.7984 42.154C48.1597 45.5187 45.7998 51.3438 40.9922 51.3438H40.5781Z"/>
</svg>
