<svg width="39" height="38" viewBox="0 0 39 38" fill="none" xmlns="http://www.w3.org/2000/svg">
<path d="M37.0195 1.4101H7.371C7.22959 1.4101 7.09396 1.46484 6.99397 1.56227C6.89397 1.6597 6.8378 1.79184 6.8378 1.92963V6.66241H1.98047C1.83905 6.66241 1.70343 6.71715 1.60344 6.81458C1.50344 6.91201 1.44727 7.04416 1.44727 7.18194V33.4441C1.44791 34.2785 1.78839 35.0786 2.39393 35.6686C2.99948 36.2586 3.82059 36.5903 4.67695 36.591H34.3255C35.1819 36.5904 36.003 36.2587 36.6086 35.6687C37.2142 35.0786 37.5546 34.2785 37.5552 33.4441V1.92963C37.5552 1.86121 37.5413 1.79345 37.5144 1.73027C37.4874 1.66708 37.4479 1.6097 37.3981 1.56143C37.3484 1.51315 37.2893 1.47493 37.2243 1.44896C37.1594 1.423 37.0898 1.40979 37.0195 1.4101ZM4.67573 35.5507C4.102 35.5507 3.55176 35.3287 3.14606 34.9334C2.74037 34.5381 2.51245 34.0019 2.51245 33.4429V7.70148H31.0946V33.4441C31.0936 34.2231 31.3904 34.9746 31.9273 35.5519L4.67573 35.5507ZM36.4851 33.4429C36.4663 33.9894 36.2302 34.5073 35.8268 34.8874C35.4234 35.2675 34.8842 35.48 34.323 35.48C33.7619 35.48 33.2227 35.2675 32.8193 34.8874C32.4159 34.5073 32.1798 33.9894 32.161 33.4429V7.18194C32.161 7.04416 32.1048 6.91201 32.0048 6.81458C31.9048 6.71715 31.7692 6.66241 31.6278 6.66241H7.9042V2.44916H36.4863L36.4851 33.4429Z" fill="#1D4E89"/>
<path d="M5.90426 12.442L8.25675 15.2567H8.90848V11.1005H8.12269V13.9148L5.7705 11.1005H5.11816V15.2567H5.90426V12.442Z" fill="#1D4E89"/>
<path d="M13.5576 14.6095H11.1506V13.4636H13.2103V12.8283H11.1506V11.7474H13.4723V11.1005H10.3584V15.2567H13.5576V14.6095Z" fill="#1D4E89"/>
<path d="M16.5381 15.2567L17.6106 12.1808L18.6648 15.2567H19.5058L20.9195 11.1005H20.1642L19.0731 14.277L17.9945 11.1005H17.2633L16.1603 14.2589L15.1 11.1005H14.2773L15.6911 15.2567H16.5381Z" fill="#1D4E89"/>
<path d="M23.9025 14.5263C23.6847 14.6393 23.4388 14.6908 23.1926 14.6748C22.9322 14.6739 22.6737 14.6308 22.4279 14.5471C22.196 14.4733 21.9787 14.3619 21.785 14.2176L21.5107 14.8173C21.725 14.9861 21.973 15.1095 22.2389 15.1797C22.5481 15.2711 22.8695 15.3172 23.1926 15.3163C23.5179 15.325 23.8415 15.2683 24.1432 15.1498C24.3773 15.0592 24.5794 14.9045 24.7252 14.7044C24.8526 14.5204 24.9195 14.303 24.9171 14.081C24.9299 13.8484 24.8527 13.6196 24.7008 13.4398C24.5588 13.283 24.3801 13.1619 24.1798 13.0868C23.9256 12.9946 23.6649 12.9202 23.3998 12.8641C23.168 12.8087 22.9852 12.7592 22.8514 12.7157C22.7295 12.6786 22.6166 12.6181 22.5193 12.5375C22.4766 12.5016 22.4428 12.4569 22.4201 12.4066C22.3974 12.3564 22.3866 12.3018 22.3882 12.2469C22.387 12.1652 22.4073 12.0846 22.4474 12.0129C22.4874 11.9411 22.5457 11.8806 22.6168 11.8372C22.8286 11.7197 23.0713 11.6658 23.3145 11.6825C23.5144 11.6838 23.7132 11.7118 23.9053 11.7657C24.1103 11.8218 24.307 11.9036 24.4906 12.0088L24.7401 11.4091C24.5401 11.283 24.3197 11.1906 24.0881 11.136C23.8372 11.0729 23.5791 11.0409 23.32 11.041C22.9958 11.0321 22.6733 11.0888 22.3727 11.2075C22.1393 11.2992 21.9381 11.4549 21.7938 11.6558C21.6667 11.8411 21.5998 12.0594 21.6018 12.2822C21.5888 12.5175 21.6659 12.7491 21.8182 12.9321C21.9584 13.0896 22.1363 13.2109 22.3361 13.2854C22.594 13.377 22.8575 13.4524 23.1253 13.511C23.3568 13.5664 23.5397 13.6159 23.6737 13.6594C23.7962 13.6964 23.9094 13.7581 24.0058 13.8405C24.0484 13.8772 24.0822 13.9224 24.1049 13.9732C24.1276 14.0239 24.1386 14.0788 24.1372 14.1341C24.1373 14.2139 24.1156 14.2923 24.0744 14.3612C24.0332 14.4301 23.9738 14.4871 23.9025 14.5263Z" fill="#1D4E89"/>
<path d="M28.2774 18.5427H5.33203C5.19062 18.5427 5.05499 18.5975 4.955 18.6949C4.855 18.7923 4.79883 18.9245 4.79883 19.0623C4.79883 19.2 4.855 19.3322 4.955 19.4296C5.05499 19.5271 5.19062 19.5818 5.33203 19.5818H28.2774C28.4189 19.5818 28.5545 19.5271 28.6545 19.4296C28.7545 19.3322 28.8106 19.2 28.8106 19.0623C28.8106 18.9245 28.7545 18.7923 28.6545 18.6949C28.5545 18.5975 28.4189 18.5427 28.2774 18.5427Z" fill="#1D4E89"/>
<path d="M28.2774 22.8296H5.33203C5.19062 22.8296 5.05499 22.8843 4.955 22.9818C4.855 23.0792 4.79883 23.2113 4.79883 23.3491C4.79883 23.4869 4.855 23.6191 4.955 23.7165C5.05499 23.8139 5.19062 23.8687 5.33203 23.8687H28.2774C28.4189 23.8687 28.5545 23.8139 28.6545 23.7165C28.7545 23.6191 28.8106 23.4869 28.8106 23.3491C28.8106 23.2113 28.7545 23.0792 28.6545 22.9818C28.5545 22.8843 28.4189 22.8296 28.2774 22.8296Z" fill="#1D4E89"/>
<path d="M28.2774 31.4076H5.33203C5.19062 31.4076 5.05499 31.4623 4.955 31.5597C4.855 31.6572 4.79883 31.7893 4.79883 31.9271C4.79883 32.0649 4.855 32.197 4.955 32.2945C5.05499 32.3919 5.19062 32.4466 5.33203 32.4466H28.2774C28.4189 32.4466 28.5545 32.3919 28.6545 32.2945C28.7545 32.197 28.8106 32.0649 28.8106 31.9271C28.8106 31.7893 28.7545 31.6572 28.6545 31.5597C28.5545 31.4623 28.4189 31.4076 28.2774 31.4076Z" fill="#1D4E89"/>
<path d="M28.2774 27.1196H5.33203C5.19062 27.1196 5.05499 27.1744 4.955 27.2718C4.855 27.3692 4.79883 27.5014 4.79883 27.6392C4.79883 27.7769 4.855 27.9091 4.955 28.0065C5.05499 28.104 5.19062 28.1587 5.33203 28.1587H28.2774C28.4189 28.1587 28.5545 28.104 28.6545 28.0065C28.7545 27.9091 28.8106 27.7769 28.8106 27.6392C28.8106 27.5014 28.7545 27.3692 28.6545 27.2718C28.5545 27.1744 28.4189 27.1196 28.2774 27.1196Z" fill="#1D4E89"/>
</svg>
