<svg xmlns="http://www.w3.org/2000/svg" xmlns:xlink="http://www.w3.org/1999/xlink" width="25" height="30.001" viewBox="0 0 25 30.001"><defs></defs><g transform="translate(-42.675)"><g transform="translate(42.675)"><path d="M67.587,25.3,65.44,21.727a10.627,10.627,0,0,1-1.515-5.468V13.126a8.761,8.761,0,0,0-6.25-8.382V2.5a2.5,2.5,0,0,0-5,0V4.744a8.761,8.761,0,0,0-6.25,8.382v3.134a10.634,10.634,0,0,1-1.514,5.467L42.764,25.3a.626.626,0,0,0,.535.948H67.05a.625.625,0,0,0,.536-.946Z" transform="translate(-42.675)"/></g><g transform="translate(51.238 27.501)"><path d="M188.815,469.333a4.349,4.349,0,0,0,7.873,0Z" transform="translate(-188.815 -469.333)"/></g></g></svg>