<svg width="26" height="26" viewBox="0 0 26 26" xmlns="http://www.w3.org/2000/svg">
<path d="M13 0C5.83136 0 0 5.83192 0 13C0 20.1681 5.83136 26 13 26C20.1686 26 26 20.1681 26 13C26 5.83192 20.1686 0 13 0ZM18.2579 17.492L17.4921 18.2579C17.2805 18.4694 16.9376 18.4694 16.726 18.2579L12.2339 13.7657C12.0308 13.5626 11.9167 13.2872 11.9167 13V4.33332C11.9167 4.03411 12.1592 3.79163 12.4584 3.79163H13.5417C13.8408 3.79163 14.0834 4.03411 14.0834 4.33332V12.5514L18.2579 16.726C18.4695 16.9375 18.4695 17.2805 18.2579 17.492Z"/>
</svg>
