<svg xmlns="http://www.w3.org/2000/svg" width="23.338" height="23.338" viewBox="0 0 23.338 23.338"><defs><style>.nav{fill:#D2D8DD;}</style></defs><path class="nav" d="M22.136,9.076H19.953a.838.838,0,0,1-.593-1.431L20.9,6.1a1.2,1.2,0,0,0,0-1.7L18.936,2.434a1.23,1.23,0,0,0-1.7,0L15.693,3.977a.811.811,0,0,1-.584.248.872.872,0,0,1-.589-.233.81.81,0,0,1-.257-.608V1.2a1.2,1.2,0,0,0-1.2-1.2H10.277a1.2,1.2,0,0,0-1.2,1.2V3.385a.836.836,0,0,1-.848.841.813.813,0,0,1-.584-.248L6.1,2.434a1.23,1.23,0,0,0-1.7,0L2.434,4.4a1.2,1.2,0,0,0,0,1.7L3.977,7.645a.838.838,0,0,1-.593,1.431H1.2a1.2,1.2,0,0,0-1.2,1.2V13.06a1.2,1.2,0,0,0,1.2,1.2H3.385a.838.838,0,0,1,.593,1.431L2.434,17.236a1.2,1.2,0,0,0,0,1.7L4.4,20.9a1.23,1.23,0,0,0,1.7,0l1.543-1.543a.811.811,0,0,1,.584-.248.836.836,0,0,1,.847.841v2.183a1.2,1.2,0,0,0,1.2,1.2H13.06a1.2,1.2,0,0,0,1.2-1.2V19.953a.836.836,0,0,1,.847-.841.814.814,0,0,1,.584.248L17.236,20.9a1.23,1.23,0,0,0,1.7,0L20.9,18.936a1.2,1.2,0,0,0,0-1.7L19.36,15.693a.838.838,0,0,1,.593-1.431h2.183a1.2,1.2,0,0,0,1.2-1.2V10.277A1.2,1.2,0,0,0,22.136,9.076Zm-7.442,2.593a3.025,3.025,0,1,1-3.025-3.025A3.029,3.029,0,0,1,14.694,11.669Z"/></svg>