<svg xmlns="http://www.w3.org/2000/svg" xmlns:xlink="http://www.w3.org/1999/xlink" width="44.722" height="44.722" viewBox="0 0 44.722 44.722"><defs><style>.auth-settings{fill:url(#a);}</style><linearGradient id="a" x1="0.5" x2="0.5" y2="1" gradientUnits="objectBoundingBox"><stop offset="0" stop-color="#215ca3"/><stop offset="1" stop-color="#1d4e89"/><stop offset="1" stop-color="#2ad2c9"/></linearGradient></defs><path class="auth-settings" d="M42.42,17.392H38.236A1.606,1.606,0,0,1,37.1,14.65l2.958-2.957a2.3,2.3,0,0,0,0-3.257L36.287,4.664a2.358,2.358,0,0,0-3.257,0L30.072,7.622a1.554,1.554,0,0,1-1.12.475,1.671,1.671,0,0,1-1.13-.446,1.551,1.551,0,0,1-.493-1.164V2.3a2.3,2.3,0,0,0-2.3-2.3H19.694a2.3,2.3,0,0,0-2.3,2.3V6.486A1.6,1.6,0,0,1,15.768,8.1a1.557,1.557,0,0,1-1.119-.475L11.691,4.664a2.358,2.358,0,0,0-3.257,0L4.664,8.435a2.3,2.3,0,0,0,0,3.257L7.622,14.65a1.606,1.606,0,0,1-1.135,2.742H2.3a2.3,2.3,0,0,0-2.3,2.3v5.332a2.306,2.306,0,0,0,2.3,2.3H6.486a1.606,1.606,0,0,1,1.136,2.742L4.664,33.03a2.3,2.3,0,0,0,0,3.257l3.771,3.771a2.356,2.356,0,0,0,3.257,0L14.65,37.1a1.554,1.554,0,0,1,1.12-.475,1.6,1.6,0,0,1,1.623,1.611v4.183a2.3,2.3,0,0,0,2.3,2.3h5.333a2.306,2.306,0,0,0,2.3-2.3V38.236a1.6,1.6,0,0,1,1.623-1.611,1.559,1.559,0,0,1,1.12.475l2.957,2.957a2.358,2.358,0,0,0,3.257,0l3.771-3.771a2.3,2.3,0,0,0,0-3.257L37.1,30.072a1.606,1.606,0,0,1,1.136-2.742H42.42a2.306,2.306,0,0,0,2.3-2.3V19.694A2.3,2.3,0,0,0,42.42,17.392ZM28.158,22.361a5.8,5.8,0,1,1-5.8-5.8A5.8,5.8,0,0,1,28.158,22.361Z"/></svg>