<svg width="17" height="17" viewBox="0 0 17 17" fill="none" xmlns="http://www.w3.org/2000/svg">
<g clip-path="url(#clip0)">
<path d="M5.10028 1.70068H1.41699V2.26734H5.10028V1.70068Z" fill="black"/>
<path d="M5.10028 2.8335H1.41699V3.40016H5.10028V2.8335Z" fill="black"/>
<path d="M3.96696 3.96631H1.41699V4.53297H3.96696V3.96631Z" fill="black"/>
<path d="M3.96696 5.10059H1.41699V5.66725H3.96696V5.10059Z" fill="black"/>
<path d="M16.9998 16.4331H0V16.9998H16.9998V16.4331Z" fill="black"/>
<path d="M16.4035 2.42306L15.2702 0.156425C15.2003 0.0163894 15.0302 -0.0404891 14.8902 0.0293871C14.8901 0.0294225 14.89 0.029458 14.89 0.0294934L12.6233 1.16281C12.4833 1.23276 12.4265 1.40301 12.4964 1.54304C12.5663 1.68308 12.7366 1.73992 12.8766 1.66997L14.5182 0.849733L14.0703 2.12868C12.1014 7.73606 7.03019 11.67 1.10938 12.1829L1.15754 12.7496C7.30144 12.2173 12.5635 8.13467 14.6055 2.31568L15.0628 1.00896L15.8964 2.67636C15.9663 2.8164 16.1365 2.87324 16.2766 2.80329C16.4167 2.73334 16.4735 2.56313 16.4035 2.42306Z" fill="black"/>
<path d="M3.40043 13.6001H1.41712C1.26065 13.6001 1.13379 13.727 1.13379 13.8834V15.5834C1.13379 15.7399 1.26065 15.8667 1.41712 15.8667H3.40043C3.5569 15.8667 3.68376 15.7399 3.68376 15.5834V13.8834C3.68376 13.727 3.5569 13.6001 3.40043 13.6001ZM3.1171 15.3001H1.70045V14.1668H3.1171V15.3001Z" fill="black"/>
<path d="M6.51664 12.7505H4.53333C4.37686 12.7505 4.25 12.8773 4.25 13.0338V15.5838C4.25 15.7403 4.37686 15.8671 4.53333 15.8671H6.51664C6.67311 15.8671 6.79997 15.7403 6.79997 15.5838V13.0338C6.79997 12.8773 6.67311 12.7505 6.51664 12.7505ZM6.23331 15.3005H4.81666V13.3171H6.23331V15.3005Z" fill="black"/>
<path d="M9.63333 11.333H7.65003C7.49356 11.333 7.3667 11.4599 7.3667 11.6163V15.583C7.3667 15.7394 7.49356 15.8663 7.65003 15.8663H9.63333C9.7898 15.8663 9.91666 15.7394 9.91666 15.583V11.6163C9.91666 11.4599 9.7898 11.333 9.63333 11.333ZM9.35 15.2996H7.93336V11.8997H9.35V15.2996Z" fill="black"/>
<path d="M12.75 9.35059H10.7667C10.6103 9.35059 10.4834 9.47745 10.4834 9.63392V15.5838C10.4834 15.7403 10.6103 15.8672 10.7667 15.8672H12.75C12.9065 15.8672 13.0334 15.7403 13.0334 15.5838V9.63392C13.0334 9.47745 12.9065 9.35059 12.75 9.35059ZM12.4667 15.3005H11.0501V9.91725H12.4667V15.3005Z" fill="black"/>
<path d="M15.8667 5.3833H13.8834C13.727 5.3833 13.6001 5.51016 13.6001 5.66663V15.5832C13.6001 15.7396 13.727 15.8665 13.8834 15.8665H15.8667C16.0232 15.8665 16.1501 15.7396 16.1501 15.5832V5.66663C16.1501 5.51016 16.0232 5.3833 15.8667 5.3833ZM15.5834 15.2998H14.1668V5.94996H15.5834V15.2998Z" fill="black"/>
</g>
<defs>
<clipPath id="clip0">
<rect width="17" height="17" fill="white"/>
</clipPath>
</defs>
</svg>
