<svg xmlns="http://www.w3.org/2000/svg" width="43.485" height="39.136" viewBox="0 0 43.485 39.136"><defs><style>.sections{}</style></defs><path class="sections" d="M41.31,6.523H31.889v-2.9A3.628,3.628,0,0,0,28.265,0H15.22A3.628,3.628,0,0,0,11.6,3.624v2.9H2.174A2.174,2.174,0,0,0,0,8.7V24.83a2.184,2.184,0,0,0,1.449,2.046V36.962a2.174,2.174,0,0,0,2.174,2.174H39.861a2.174,2.174,0,0,0,2.174-2.174V26.876a2.184,2.184,0,0,0,1.449-2.047V8.7A2.174,2.174,0,0,0,41.31,6.523Zm-28.265-2.9A2.174,2.174,0,0,1,15.22,1.449H28.265a2.174,2.174,0,0,1,2.174,2.174v2.9H28.99v-2.9a.725.725,0,0,0-.725-.725H15.22a.725.725,0,0,0-.725.725v2.9H13.045Zm14.495,2.9h-11.6V4.348h11.6ZM40.586,36.962a.725.725,0,0,1-.725.725H3.624a.725.725,0,0,1-.725-.725V27.125l15.944,2.2v1.84a2.174,2.174,0,0,0,2.174,2.174h1.449a2.174,2.174,0,0,0,2.174-2.174v-1.84l15.944-2.2Zm-17.394-5.8a.725.725,0,0,1-.725.725H21.018a.725.725,0,0,1-.725-.725V26.816a.725.725,0,0,1,.725-.725h1.449a.725.725,0,0,1,.725.725ZM42.035,24.83a.725.725,0,0,1-.623.718l-.2.028-16.57,2.285V26.816a2.174,2.174,0,0,0-2.174-2.174H21.018a2.174,2.174,0,0,0-2.174,2.174v1.045L2.073,25.548a.725.725,0,0,1-.624-.718V8.7a.725.725,0,0,1,.725-.725H41.31a.725.725,0,0,1,.725.725Zm0,0"/></svg>