<svg width="39" height="39" viewBox="0 0 39 39" fill="none" xmlns="http://www.w3.org/2000/svg">
<g clip-path="">
<path d="M38.522 15.2162C36.5196 6.32255 28.6203 0.00479552 19.504 0.0058616C11.502 0.00205416 4.31048 4.88874 1.36726 12.3298C-1.57597 19.7708 0.326988 28.2547 6.16645 33.7258C12.0059 39.1968 20.5956 40.5437 27.8294 37.1225C27.8346 37.1202 27.8403 37.1213 27.8454 37.1189C27.8504 37.1165 27.8532 37.112 27.8581 37.1095C36.0951 33.2034 40.5244 24.1097 38.522 15.2162ZM29.4523 4.2775L25.773 5.5654C25.6984 5.59182 25.6291 5.63157 25.5687 5.68282C24.7943 6.29833 24.0775 6.98283 23.427 7.72802C22.9993 8.03361 22.5327 8.28056 22.0395 8.46225C19.8385 8.61706 17.153 8.87916 16.6066 9.258C15.9378 9.7238 15.8261 11.1661 15.8498 12.2944C15.852 12.394 15.8771 12.4917 15.9232 12.58L17.7113 16.0194C18.007 16.5714 18.69 16.7853 19.2477 16.5004C19.398 16.4249 19.5503 16.3399 19.7036 16.2542C19.8286 16.1844 19.9542 16.114 20.1052 16.0365C20.3302 15.9236 20.6097 15.7858 20.7471 15.8252C20.7841 15.8366 20.8197 15.8524 20.8531 15.8722C20.8063 15.9861 20.7341 16.0877 20.6418 16.1692C20.1792 16.6743 19.7229 17.1845 19.2654 17.7112L17.7345 19.4797C17.6825 19.5394 17.6307 19.5991 17.5559 19.6917C17.0984 20.3263 16.9041 21.1133 17.0136 21.8879L17.0774 22.3233C17.1414 22.7723 17.0244 23.2284 16.7522 23.5912L15.471 25.3261C15.3606 25.4698 15.2653 25.6246 15.1867 25.7881L13.8367 28.5973H12.7686C13.0737 28.2881 13.1957 27.8423 13.0906 27.4208L11.8522 22.4179H11.8532C11.8444 22.3675 11.8316 22.3178 11.8151 22.2694L10.9206 19.865C10.8845 19.7669 10.8662 19.663 10.8667 19.5585V19.4417C10.8702 18.6068 10.3973 17.8429 9.64835 17.4739L9.59124 17.4486C9.21697 17.2542 8.7932 17.1758 8.37415 17.2233L6.61862 17.4188C6.33512 17.4507 6.05459 17.3379 5.87198 17.1187L4.76973 15.8152C4.6338 15.6534 4.55903 15.449 4.55842 15.2378V14.0874C4.55537 13.853 4.64584 13.6272 4.80971 13.4597L6.23049 12.0249C6.35499 11.8972 6.46427 11.7557 6.55633 11.6029L7.01513 10.8237C7.16841 10.5611 7.45039 10.4007 7.75438 10.403H9.63525C9.88334 10.4017 10.1194 10.5099 10.2803 10.6987C10.6918 11.1499 11.2737 11.408 11.8845 11.41H12.5762C12.8625 11.41 13.115 11.2226 13.198 10.9487L13.799 8.96688C13.8716 8.72671 13.7996 8.46621 13.614 8.29739C13.239 7.95791 12.9269 7.55494 12.692 7.10695C12.2681 6.08146 10.4168 5.41836 9.90939 5.3384C9.57738 5.14925 9.26616 4.92567 8.98106 4.67134C15.071 0.331854 23.2 0.175521 29.4523 4.2775ZM9.49872 34.6992C4.3851 31.3337 1.30748 25.6217 1.30953 19.4999C1.30854 14.0736 3.73358 8.93102 7.92076 5.47958C9.10183 6.46875 9.47465 6.59668 9.72556 6.6244C10.3908 6.785 11.0004 7.12218 11.49 7.6004C11.726 8.10679 12.048 8.5684 12.4419 8.96475L12.0944 10.1102H11.8847C11.6434 10.1093 11.4133 10.0088 11.2488 9.83224C10.8414 9.36788 10.2532 9.10213 9.63548 9.10312H7.75461C6.99106 9.10395 6.28448 9.50716 5.89528 10.1641L5.44471 10.93C5.40588 10.9941 5.36019 11.0539 5.30863 11.1083L3.88717 12.5437C3.48107 12.9543 3.25498 13.5095 3.25894 14.087V15.2375C3.26016 15.7544 3.44261 16.2545 3.77454 16.6507L4.87999 17.9573C5.34343 18.5076 6.05124 18.79 6.76627 18.7099L8.51769 18.5151C8.69184 18.4956 8.86782 18.5306 9.02126 18.6154L9.085 18.6445C9.38411 18.7971 9.57098 19.1059 9.56725 19.4416V19.5583C9.56672 19.8198 9.61332 20.0793 9.70493 20.3242L10.5809 22.6778C10.5838 22.6912 10.5863 22.7032 10.5883 22.7102L11.8222 27.7049L11.6987 27.8243C11.3408 28.2135 11.2571 28.7819 11.4877 29.2578C11.6856 29.6489 12.0862 29.8958 12.5246 29.8968H13.8366C14.3093 29.8973 14.7411 29.6284 14.949 29.2039L16.3574 26.3521C16.4002 26.2645 16.4519 26.1816 16.5116 26.1046L17.7947 24.3665C18.272 23.7297 18.4767 22.9294 18.3639 22.1417L18.3001 21.7051C18.2378 21.2765 18.3398 20.8401 18.5857 20.4835L18.7132 20.3344C18.7637 20.2767 18.8141 20.2189 18.8532 20.1713L20.2473 18.5621C20.6963 18.0462 21.1458 17.5427 21.5958 17.0518C22.0041 16.6999 22.2029 16.1628 22.1222 15.6298C22.0038 15.1282 21.6252 14.7287 21.1307 14.5834C20.563 14.4655 19.9717 14.5768 19.4858 14.8931C19.3466 14.9648 19.2073 15.0422 19.0689 15.1196C18.9747 15.1722 18.8811 15.2249 18.7885 15.2744L17.1475 12.1181C17.1238 11.5119 17.1991 10.906 17.3705 10.3242C18.976 10.0218 20.6004 9.83056 22.2323 9.75175C22.2991 9.74688 22.3648 9.73187 22.4271 9.70735C23.2228 9.39134 24.2324 8.9116 24.5196 8.42806C25.0798 7.8296 25.68 7.26991 26.3161 6.75279L30.7391 5.20476C33.9062 7.69284 36.1601 11.1597 37.1491 15.064L36.9128 14.94C36.4722 14.7067 35.9697 14.6173 35.4758 14.6843L32.1243 15.1253C31.5 15.1971 31.0294 15.7267 31.0316 16.3551V16.9529H30.3558C29.9248 16.9555 29.5247 17.1769 29.2935 17.5405L29.0768 17.8819C28.5204 18.7674 28.381 19.8525 28.6954 20.8498L29.2097 22.5054L28.7544 22.6628C28.4223 22.7801 28.1554 23.0326 28.0199 23.3577C27.8877 23.678 27.8971 24.0391 28.0459 24.352L29.5542 27.5522L28.597 27.5636L26.7824 26.1162C26.4598 25.8715 26.0402 25.7948 25.6519 25.9093L22.975 26.7165C22.5684 26.8444 22.2556 27.1714 22.1458 27.5833C22.0361 27.9951 22.1446 28.4344 22.4336 28.7477L22.8058 29.1462C22.9422 29.2853 23.1082 29.3916 23.2916 29.4571L24.3837 29.8061V31.0144C24.3862 31.1973 24.425 31.3778 24.4979 31.5455L26.6975 36.2089C21.076 38.632 14.6124 38.0647 9.49872 34.6992ZM27.8702 35.6488L25.6834 31.0143V29.806C25.6843 29.2768 25.3513 28.8045 24.8525 28.6276L23.7416 28.245L23.4482 27.9303L25.9867 27.1427L27.7819 28.5749C28.0055 28.7531 28.2829 28.8502 28.5688 28.8504H29.6343C30.0607 28.8526 30.4589 28.6373 30.6905 28.2793C30.9201 27.924 30.9517 27.476 30.7743 27.0919L29.2533 23.8651L29.6997 23.7109C30.3246 23.4884 30.6638 22.8134 30.4694 22.1791L29.9353 20.46C29.7354 19.8264 29.8236 19.1369 30.1768 18.574L30.3558 18.2523H31.0833C31.7685 18.2551 32.3268 17.7027 32.3312 17.0174V16.4088L35.6526 15.9716C35.8794 15.9407 36.1101 15.9829 36.3113 16.0921L36.5705 16.228C36.8429 16.3681 37.1393 16.4556 37.4442 16.4857C38.7617 24.2761 34.8906 32.0242 27.8702 35.6488Z" fill="#1D4E89"/>
</g>
<defs>
<clipPath id="clip0">
<rect width="39" height="39" fill="white"/>
</clipPath>
</defs>
</svg>
